<svg id="icon-car" viewBox="0 0 22 21" fill="none" xmlns="http://www.w3.org/2000/svg">
<path d="M5.32824 0.639751C4.69965 0.841095 4.15946 1.2978 3.87955 1.85763C3.74204 2.14737 3.63892 2.58935 3.09873 5.29521L2.47505 8.40375L2.10674 8.43813C1.91031 8.45286 1.64512 8.50197 1.52235 8.54617C0.859393 8.79171 0.275006 9.41538 0.0785731 10.0931C0.00982163 10.3239 0 10.7511 0 13.1525C0 15.8486 0.00491082 15.9566 0.103127 16.2463C0.29956 16.8405 0.731712 17.3365 1.28663 17.6164L1.57146 17.7589V18.7656C1.57146 19.9638 1.62057 20.1603 2.01344 20.558C2.42103 20.9607 2.59291 21 3.92865 21C5.2644 21 5.43628 20.9607 5.84387 20.558C6.23183 20.1652 6.28585 19.9589 6.28585 18.8147V17.8571H11.0002H15.7146V18.8147C15.7146 19.9589 15.7686 20.1652 16.1566 20.558C16.5642 20.9607 16.7361 21 18.0718 21C19.4076 21 19.5794 20.9607 19.987 20.558C20.3799 20.1603 20.429 19.9638 20.429 18.7656V17.7638L20.7728 17.5821C21.2098 17.3562 21.5634 16.9731 21.7991 16.482L21.9759 16.1137L21.9906 13.2458C22.0005 10.7315 21.9956 10.3435 21.9268 10.1029C21.7255 9.41538 21.146 8.79171 20.4781 8.54617C20.3553 8.50197 20.0902 8.45286 19.8937 8.43813L19.5254 8.40375L18.9017 5.29521C18.3615 2.58935 18.2584 2.14737 18.1209 1.85763C17.8901 1.40093 17.4923 1.01297 17.0062 0.777254L16.6231 0.595554L11.0739 0.585732C6.68362 0.580822 5.48538 0.590643 5.32824 0.639751ZM16.3481 2.26523C16.6771 2.45675 16.6722 2.44693 17.2664 5.41307C17.5709 6.95015 17.8361 8.25643 17.8508 8.31536L17.8754 8.42831H11.0002H4.12509L4.14964 8.31536C4.16437 8.25643 4.42465 6.95506 4.73403 5.42289C5.06305 3.77285 5.32333 2.58443 5.37243 2.51077C5.47065 2.35854 5.65235 2.24068 5.8586 2.19157C5.94209 2.16702 8.30419 2.15719 11.0984 2.15719C16.0878 2.16702 16.1861 2.16702 16.3481 2.26523ZM19.7611 10.0489C20.0018 10.1029 20.1785 10.2306 20.3062 10.4467C20.3995 10.6087 20.4044 10.702 20.4044 13.1427C20.4044 15.5834 20.3995 15.6767 20.3062 15.8387C20.1785 16.0548 20.0018 16.1825 19.7611 16.2365C19.5058 16.3003 2.4947 16.3003 2.23933 16.2365C1.9987 16.1825 1.82191 16.0548 1.69423 15.8387C1.60093 15.6767 1.59602 15.5834 1.59602 13.1427C1.59602 10.702 1.60093 10.6087 1.69423 10.4467C1.817 10.2404 1.9987 10.098 2.21478 10.0489C2.4505 9.99486 19.5254 9.98995 19.7611 10.0489ZM4.71438 18.6428V19.4285H3.92865H3.14292V18.6428V17.8571H3.92865H4.71438V18.6428ZM18.8575 18.6428V19.4285H18.0718H17.2861V18.6428V17.8571H18.0718H18.8575V18.6428Z" fill="#FEFEFE"/>
<path d="M4.08532 11.6745C3.73174 11.812 3.37816 12.1705 3.24066 12.5388C3.09825 12.9219 3.11789 13.5504 3.28486 13.8746C3.77103 14.8076 5.09695 15.0139 5.84339 14.2723C6.62421 13.4866 6.3443 12.0526 5.32776 11.6745C4.96436 11.537 4.44381 11.537 4.08532 11.6745Z" fill="#FEFEFE"/>
<path d="M16.6576 11.6745C16.304 11.812 15.9504 12.1705 15.8129 12.5388C15.6705 12.9219 15.6902 13.5504 15.8571 13.8746C16.3433 14.8076 17.6692 15.0139 18.4157 14.2723C19.1965 13.4866 18.9166 12.0526 17.9 11.6745C17.5366 11.537 17.0161 11.537 16.6576 11.6745Z" fill="#FEFEFE"/>
<path d="M8.211 12.4555C7.97528 12.6028 7.85742 12.8238 7.85742 13.143C7.85742 13.4622 7.97528 13.6832 8.211 13.8305C8.36815 13.9238 8.46636 13.9287 11.0003 13.9287C13.5343 13.9287 13.6325 13.9238 13.7897 13.8305C14.0254 13.6832 14.1433 13.4622 14.1433 13.143C14.1433 12.8238 14.0254 12.6028 13.7897 12.4555C13.6325 12.3622 13.5343 12.3572 11.0003 12.3572C8.46636 12.3572 8.36815 12.3622 8.211 12.4555Z" fill="#FEFEFE"/>
</svg>
