<svg id="icon-calendar" viewBox="0 0 20 18" fill="none" xmlns="http://www.w3.org/2000/svg">
<path d="M1.97635 0.926665C1.4982 1.09609 1.11795 1.54035 0.997469 2.07497C0.974879 2.16909 0.956055 2.76771 0.956055 3.4341V4.63135H10.0333H19.1067L19.0954 3.39645L19.0842 2.16532L18.975 1.93943C18.8281 1.642 18.4404 1.26174 18.1241 1.09985C17.6949 0.885251 17.5707 0.866426 16.46 0.866426H15.4548L15.4435 1.81519C15.4322 2.69994 15.4284 2.77524 15.3569 2.86936C15.2778 2.98231 15.0218 3.12538 14.9051 3.12538C14.7884 3.12538 14.5324 2.98231 14.4533 2.86936C14.3818 2.77524 14.378 2.69994 14.3667 1.81519L14.3554 0.866426H9.80362H5.24807V1.77377C5.24807 2.6397 5.2443 2.68865 5.16524 2.82795C5.06358 3.00867 4.81133 3.1442 4.63815 3.11032C4.45743 3.07643 4.28425 2.94843 4.21648 2.80913C4.16753 2.70371 4.15624 2.53052 4.15624 1.77377V0.866426H3.151C2.34155 0.870191 2.10812 0.881485 1.97635 0.926665Z" fill="#3B99FF"/>
<path d="M0.956055 11.1712C0.956055 15.5385 0.967349 16.5814 1.00876 16.7357C1.13301 17.2063 1.41161 17.5527 1.81446 17.7447L2.06671 17.8652L9.80362 17.8765C16.7988 17.884 17.5594 17.8803 17.7476 17.8238C18.3914 17.6393 18.911 17.1725 19.0992 16.6115C19.1783 16.3818 19.1783 16.3366 19.1783 11.0883V5.79863H10.0672H0.956055V11.1712ZM6.20436 7.95969C6.27212 7.98605 6.36248 8.05758 6.40766 8.11405C6.48672 8.21194 6.49049 8.25336 6.49049 9.02516C6.49049 9.91745 6.47543 9.99651 6.2533 10.1283C6.14412 10.1961 6.06129 10.2036 5.34219 10.2036C4.49132 10.2036 4.43108 10.1923 4.29178 10.004C4.21648 9.90239 4.21271 9.84968 4.21271 9.05528C4.21271 7.88063 4.18259 7.91075 5.35348 7.91075C5.8881 7.90698 6.11023 7.92204 6.20436 7.95969ZM10.6808 7.95969C10.7486 7.98605 10.8352 8.04628 10.8766 8.09523C10.9482 8.17429 10.9519 8.23077 10.9519 9.07787V9.97769L10.8465 10.0793L10.7449 10.1848H9.84503H8.94522L8.84733 10.0944C8.6892 9.9438 8.66661 9.79697 8.68167 8.97246C8.69673 7.89192 8.67791 7.91075 9.83374 7.91075C10.3646 7.90698 10.5905 7.92204 10.6808 7.95969ZM15.2515 7.96722C15.4962 8.0877 15.5075 8.12911 15.5075 9.03646C15.5075 9.48072 15.4962 9.89486 15.4774 9.95133C15.4623 10.0078 15.3945 10.0869 15.3268 10.1283C15.2176 10.1961 15.1348 10.2036 14.3855 10.2036C13.1808 10.2036 13.2297 10.2525 13.2297 9.04399C13.2297 8.25336 13.2335 8.21194 13.3125 8.11405C13.4556 7.92957 13.561 7.91075 14.3705 7.90698C14.9917 7.90698 15.1423 7.91828 15.2515 7.96722ZM6.26459 13.0837C6.4792 13.1929 6.49425 13.2833 6.48296 14.1869C6.4679 15.3427 6.50555 15.3051 5.30454 15.3051C4.54026 15.3051 4.51014 15.3013 4.39343 15.2185C4.21271 15.0905 4.18636 14.9361 4.20142 14.0777C4.21271 13.3925 4.22024 13.3247 4.29178 13.2268C4.43108 13.0386 4.49132 13.0273 5.35348 13.0273C5.99728 13.0273 6.178 13.0386 6.26459 13.0837ZM10.7449 13.0837C10.9519 13.1929 10.9707 13.2795 10.9707 14.1831C10.9707 15.3691 11.0084 15.3389 9.74338 15.3163C8.65908 15.3013 8.67791 15.3201 8.67791 14.1643C8.67414 13.3699 8.69673 13.2532 8.88122 13.1101C8.98287 13.031 9.02052 13.0273 9.81115 13.0273C10.4738 13.0273 10.6583 13.0386 10.7449 13.0837ZM15.259 13.0762C15.3079 13.0988 15.387 13.1703 15.4284 13.2268C15.5037 13.3285 15.5075 13.3812 15.5075 14.1756C15.5075 15.3502 15.5376 15.3201 14.3667 15.3201C13.5723 15.3239 13.4556 15.3013 13.3125 15.1168C13.2335 15.0152 13.2297 14.9775 13.2297 14.1869C13.2297 12.9821 13.1808 13.031 14.3592 13.031C14.9277 13.0273 15.195 13.0423 15.259 13.0762Z" fill="#3B99FF"/>
</svg>
