<svg id="icon-geo" viewBox="0 0 30 30" fill="none" xmlns="http://www.w3.org/2000/svg">
<circle opacity="0.1" cx="14.6939" cy="14.6939" r="14.6939" fill="white"/>
<path fill-rule="evenodd" clip-rule="evenodd" d="M13.7432 7.0445C11.6627 7.33198 9.93246 8.69769 9.28024 10.5671C8.71246 12.1945 8.98831 13.7148 10.2832 16.0956C11.0573 17.5188 11.9938 18.9022 13.2943 20.5435C13.8389 21.2309 14.4849 22 14.5176 22C14.5308 22 14.7065 21.7992 14.908 21.5536C17.3061 18.6321 19.126 15.7125 19.7353 13.8091C19.9663 13.0874 20.001 12.8717 20 12.1646C19.9992 11.6165 19.988 11.4743 19.9238 11.1936C19.4673 9.19679 17.9616 7.686 15.91 7.16619C15.269 7.00375 14.3938 6.95461 13.7432 7.0445ZM15.1507 10.0203C15.9446 10.2488 16.5281 10.8042 16.7783 11.5695C16.8875 11.9035 16.8873 12.4265 16.778 12.7597C16.5081 13.5825 15.91 14.127 15.0533 14.3301C14.5135 14.458 13.8282 14.3678 13.348 14.1056C12.8573 13.8377 12.4877 13.4132 12.2798 12.879C12.198 12.6685 12.1908 12.6124 12.1906 12.1803C12.1904 11.7457 12.1974 11.6916 12.2832 11.4598C12.4918 10.8964 12.9291 10.4262 13.4775 10.1755C13.8834 9.99002 14.1492 9.93802 14.6058 9.95487C14.8085 9.96236 15.05 9.99136 15.1507 10.0203Z" fill="#C8A780"/>
<path fill-rule="evenodd" clip-rule="evenodd" d="M13.7432 7.0445C11.6627 7.33198 9.93246 8.69769 9.28024 10.5671C8.71246 12.1945 8.98831 13.7148 10.2832 16.0956C11.0573 17.5188 11.9938 18.9022 13.2943 20.5435C13.8389 21.2309 14.4849 22 14.5176 22C14.5308 22 14.7065 21.7992 14.908 21.5536C17.3061 18.6321 19.126 15.7125 19.7353 13.8091C19.9663 13.0874 20.001 12.8717 20 12.1646C19.9992 11.6165 19.988 11.4743 19.9238 11.1936C19.4673 9.19679 17.9616 7.686 15.91 7.16619C15.269 7.00375 14.3938 6.95461 13.7432 7.0445ZM15.1507 10.0203C15.9446 10.2488 16.5281 10.8042 16.7783 11.5695C16.8875 11.9035 16.8873 12.4265 16.778 12.7597C16.5081 13.5825 15.91 14.127 15.0533 14.3301C14.5135 14.458 13.8282 14.3678 13.348 14.1056C12.8573 13.8377 12.4877 13.4132 12.2798 12.879C12.198 12.6685 12.1908 12.6124 12.1906 12.1803C12.1904 11.7457 12.1974 11.6916 12.2832 11.4598C12.4918 10.8964 12.9291 10.4262 13.4775 10.1755C13.8834 9.99002 14.1492 9.93802 14.6058 9.95487C14.8085 9.96236 15.05 9.99136 15.1507 10.0203Z" fill="white"/>
</svg>
