<svg id="icon-transmission" viewBox="0 0 32 32" fill="none" xmlns="http://www.w3.org/2000/svg">
<path d="M2.76855 0.0996132C2.13196 0.268124 1.64515 0.555214 1.10841 1.09195C0.334516 1.85961 0.0224609 2.61478 0.0224609 3.73194C0.0224609 4.43718 0.141042 4.93023 0.446856 5.52314C0.715224 6.02867 1.33309 6.67774 1.8199 6.95859L2.14444 7.14582V15.977V24.8082L1.8199 24.9954C1.33309 25.2762 0.715224 25.9253 0.446856 26.4309C0.141042 27.0238 0.0224609 27.5168 0.0224609 28.2221C0.0224609 29.3267 0.334516 30.0881 1.11466 30.862C1.65139 31.405 2.12571 31.6859 2.79975 31.8606C3.28032 31.9854 4.23521 31.9792 4.72202 31.8544C6.62555 31.3613 7.83633 29.3954 7.42442 27.4606C7.21846 26.4933 6.56938 25.5509 5.75804 25.0453L5.38981 24.8206V21.2133V17.5997H8.99718H12.5983L12.7793 17.9305C13.0102 18.3361 13.6343 18.9602 14.0587 19.1974L14.377 19.3784V22.1058V24.8269L14.0338 25.0204C13.3535 25.4073 12.7231 26.1937 12.4423 27.0238C12.2488 27.5792 12.2051 28.5341 12.3424 29.0833C12.6794 30.4376 13.7342 31.5174 15.0386 31.8544C15.5316 31.9792 16.4865 31.9854 16.9608 31.8606C18.2652 31.5236 19.32 30.4314 19.657 29.0833C19.8068 28.4967 19.7506 27.5792 19.5384 26.9676C19.2513 26.1562 18.6459 25.4073 17.9532 25.0141L17.6224 24.8269V22.1058V19.3784L17.9469 19.1974C18.3588 18.9665 18.9892 18.3361 19.2201 17.9242L19.3949 17.6059L22.428 17.5872C25.8669 17.5622 25.792 17.5685 26.8904 17.038C28.1012 16.4513 28.9999 15.4902 29.4992 14.217C29.8362 13.3807 29.855 13.156 29.855 10.0292V7.14582L30.1795 6.95859C30.6663 6.67774 31.2842 6.02867 31.5525 5.52314C31.8584 4.93023 31.9769 4.43718 31.9769 3.73194C31.9769 2.61478 31.6649 1.85961 30.891 1.09195C30.0984 0.305571 29.3557 -0.000244141 28.2323 -0.000244141C27.5582 -0.000244141 27.1338 0.0996132 26.5597 0.380463C24.3441 1.46642 23.8073 4.46215 25.4987 6.27831C25.7046 6.49675 26.0416 6.78384 26.2476 6.90866L26.6158 7.13334L26.5971 9.94808L26.5784 12.7628L26.4161 13.1061C26.2102 13.543 25.8232 13.9299 25.3738 14.1483L25.0181 14.3231L22.2096 14.3418L19.4011 14.3605L19.2201 14.036C18.9892 13.6179 18.3651 12.9875 17.9532 12.7566L17.6224 12.5756V9.84823V7.1271L17.9657 6.93363C18.6397 6.55292 19.2825 5.74782 19.5571 4.93023C19.7506 4.37477 19.7943 3.41988 19.657 2.87067C19.3824 1.78471 18.6647 0.87351 17.7035 0.392944C17.0357 0.0559254 16.6363 -0.0189686 15.7813 0.0122375C15.0011 0.0496845 14.5955 0.174507 13.9589 0.573936C13.1662 1.07323 12.486 2.06556 12.3112 2.98301C12.2051 3.56343 12.2675 4.4247 12.461 4.9864C12.7481 5.79775 13.3535 6.54668 14.0525 6.93987L14.377 7.1271V9.84823V12.5756L14.0462 12.7566C13.6281 12.9937 13.0164 13.6054 12.7793 14.0235L12.5983 14.3543H8.99718H5.38981V10.7407V7.13334L5.75804 6.90866C6.26357 6.59037 6.83151 5.96626 7.09988 5.41704C8.16711 3.25761 7.00626 0.705 4.69081 0.0871315C4.26642 -0.0252094 3.21167 -0.0189686 2.76855 0.0996132Z" fill="#3B99FF"/>
</svg>
