<svg id="icon-fuel" viewBox="0 0 30 32" fill="none" xmlns="http://www.w3.org/2000/svg">
<path d="M3.47816 0.142488C3.34958 0.22106 3.1853 0.385347 3.10673 0.51392C2.96387 0.749636 2.96387 0.90678 2.96387 14.6569V28.5713H11.5354H20.1069V14.6569C20.1069 0.90678 20.1069 0.749636 19.964 0.51392C19.8854 0.385347 19.7211 0.22106 19.5926 0.142488C19.364 -0.000370026 19.214 -0.000370026 11.5354 -0.000370026C3.85673 -0.000370026 3.70673 -0.000370026 3.47816 0.142488ZM18.3211 4.53538V7.35683H11.4997H4.67817V4.53538V1.71393H11.4997H18.3211V4.53538ZM11.9354 14.3712C12.9497 15.6498 13.7068 16.8426 14.064 17.7426C14.2354 18.1569 14.2568 18.3212 14.2354 18.7426C14.1711 19.9998 13.1854 21.0855 11.9425 21.2712C10.7568 21.4569 9.60678 20.8284 9.0782 19.7141C8.88534 19.3069 8.85677 19.1712 8.85677 18.6284C8.85677 18.0141 8.85677 18.0069 9.30678 17.1283C9.72107 16.2998 10.3282 15.3926 11.1354 14.3712C11.3282 14.1283 11.5068 13.9283 11.5354 13.9283C11.5568 13.9283 11.7425 14.1283 11.9354 14.3712Z" fill="#3B99FF"/>
<path d="M26.9139 2.82895C26.6639 2.9718 26.4639 3.11466 26.4639 3.15752C26.4639 3.20038 26.7067 3.65038 26.9996 4.17181L27.5353 5.11468V6.70041V8.28613H28.1067H28.6782V6.4504V4.61467L28.0996 3.59324C27.7782 3.02895 27.4853 2.5718 27.4353 2.5718C27.3924 2.57894 27.1567 2.69323 26.9139 2.82895Z" fill="#3B99FF"/>
<path d="M26.9639 10.607V12.0713H28.1067H29.2496V10.607V9.14269H28.1067H26.9639V10.607Z" fill="#3B99FF"/>
<path d="M21.25 13.1713V13.7856H21.4643C21.9143 13.7856 22.4857 14.207 22.7786 14.7499C22.9286 15.0285 22.9286 15.0999 22.9643 19.6428L23 24.25L23.2072 24.6786C23.4786 25.2286 24.0215 25.7714 24.5715 26.0429C24.9715 26.2357 25.0572 26.25 25.8215 26.25C26.5858 26.25 26.6715 26.2357 27.0715 26.0429C27.6215 25.7714 28.1643 25.2286 28.4358 24.6786L28.6429 24.25L28.6643 18.5499L28.6786 12.857H28.1143H27.5429L27.5215 18.2999C27.5001 23.6643 27.5001 23.7571 27.35 24.0714C27.0429 24.7214 26.5143 25.0714 25.8215 25.0714C25.15 25.0714 24.6357 24.75 24.2929 24.1071C24.1429 23.8286 24.1429 23.7571 24.1072 19.2142L24.0715 14.607L23.8643 14.1785C23.4429 13.3213 22.55 12.6713 21.6857 12.5927L21.25 12.5499V13.1713Z" fill="#3B99FF"/>
<path d="M1.50729 30.8214C1.05014 31.4286 0.678711 31.9429 0.678711 31.9643C0.678711 31.9857 5.56447 32 11.5359 32C17.5074 32 22.3932 31.9857 22.3932 31.9643C22.3932 31.9429 22.0217 31.4286 21.5646 30.8214L20.736 29.7143H11.5359H2.33587L1.50729 30.8214Z" fill="#3B99FF"/>
</svg>
