<svg id="icon-whatsapp" viewBox="0 0 30 30" fill="none" xmlns="http://www.w3.org/2000/svg">
<circle cx="15.3033" cy="15.2994" r="14.6939" fill="#3B99FF"/>
<g clip-path="url(#clip0_46_223)">
<path d="M15.2899 7.02686H15.2862C11.2398 7.02686 7.94923 10.3183 7.94923 14.3657C7.94672 15.9114 8.43602 17.4179 9.34636 18.6671L8.43176 21.3935L11.2526 20.4918C12.4492 21.2856 13.8539 21.7076 15.2899 21.7045C19.3363 21.7045 22.6269 18.4121 22.6269 14.3657C22.6269 10.3192 19.3363 7.02686 15.2899 7.02686ZM19.5602 17.3902C19.3831 17.8902 18.6804 18.3048 18.1199 18.4259C17.7365 18.5075 17.2356 18.5727 15.5495 17.8736C13.3928 16.9801 12.0039 14.7886 11.8957 14.6464C11.792 14.5042 11.0242 13.4859 11.0242 12.4328C11.0242 11.3797 11.559 10.8669 11.7746 10.6467C11.9516 10.466 12.2443 10.3835 12.525 10.3835C12.6158 10.3835 12.6974 10.388 12.7708 10.3917C12.9864 10.4009 13.0947 10.4137 13.2369 10.7541C13.4139 11.1806 13.8451 12.2338 13.8964 12.342C13.9487 12.4502 14.001 12.597 13.9276 12.7392C13.8588 12.886 13.7983 12.9511 13.69 13.0759C13.5818 13.2006 13.479 13.296 13.3708 13.43C13.2717 13.5465 13.1598 13.6712 13.2846 13.8868C13.4093 14.0978 13.8405 14.8014 14.4753 15.3665C15.2945 16.0958 15.9586 16.3288 16.1962 16.4279C16.3733 16.5013 16.5843 16.4838 16.7136 16.3462C16.8778 16.1692 17.0806 15.8756 17.287 15.5867C17.4337 15.3794 17.619 15.3537 17.8135 15.4271C18.0117 15.4959 19.0602 16.0142 19.2758 16.1215C19.4914 16.2297 19.6336 16.2811 19.6858 16.3719C19.7372 16.4627 19.7372 16.8893 19.5602 17.3902Z" fill="white"/>
</g>
<defs>
<clipPath id="clip0_46_223">
<rect width="14.6776" height="14.6776" fill="white" transform="translate(7.94922 7.02686)"/>
</clipPath>
</defs>
</svg>
