<svg width="45" height="45" viewBox="0 0 45 45" fill="none" xmlns="http://www.w3.org/2000/svg">
<path d="M26.1444 12.0482C25.285 12.1849 24.5545 12.474 23.7615 12.9974C23.4021 13.2318 22.9919 13.6302 18.816 17.8062C14.6401 21.9821 14.2416 22.3923 14.0072 22.7516C13.2924 23.8337 12.9994 24.8103 12.9994 26.0916C12.9994 27.0838 13.1713 27.8299 13.6049 28.7089C14.1752 29.8769 15.1127 30.8144 16.2807 31.3847C17.1597 31.8184 17.9058 31.9902 18.898 31.9902C20.1793 31.9902 21.1559 31.6973 22.238 30.9824C22.5974 30.748 23.0075 30.3496 27.1835 26.1736C31.3594 21.9977 31.7578 21.5875 31.9922 21.2282C32.7071 20.1461 33.0001 19.1695 33.0001 17.8882C33.0001 16.896 32.8282 16.1499 32.3946 15.2709C32.1016 14.6693 31.7617 14.1967 31.2773 13.7123C30.375 12.8138 29.2851 12.2552 27.9999 12.0443C27.5897 11.9778 26.5741 11.9818 26.1444 12.0482ZM27.9413 13.9232C29.4843 14.2514 30.7383 15.5092 31.0742 17.0718C31.1836 17.5796 31.1641 18.3765 31.0351 18.8804C30.9101 19.3531 30.7461 19.7203 30.4648 20.1539C30.289 20.4273 29.9023 20.8336 28.2382 22.5094L26.2264 24.533L23.3435 21.65L20.4606 18.7671L22.4411 16.7905C23.5349 15.7006 24.5388 14.7279 24.6795 14.6264C25.1834 14.2592 25.9022 13.9662 26.535 13.8646C26.8631 13.8138 27.5702 13.8451 27.9413 13.9232ZM19.2457 20.4039C19.3941 20.482 19.484 20.6305 19.484 20.8024C19.484 20.943 19.484 18.7671 16.2729 21.65C12.6869 27.0487 16.3511 24.1384 16.2729 24.2556C15.9448 24.7595 15.7925 25.1892 15.7299 25.7947C15.6792 26.2557 17.2613 26.2361 17.0816 26.326C16.8355 26.4393 17.98 23.8806 17.9214 23.611C17.8511 23.3024 14.9643 24.9431 15.1948 24.4353C15.4838 23.7946 15.6635 23.5798 17.2495 21.9821C18.0738 21.1539 18.8043 20.4469 18.8746 20.4117C19.0269 20.3375 19.109 20.3336 19.2457 20.4039Z" fill="white"/>
</svg>
