<svg width="26" height="26" viewBox="0 0 26 26" fill="none" xmlns="http://www.w3.org/2000/svg">
<path d="M18.1458 3.8565V2.1665C18.1458 1.72234 17.7775 1.354 17.3333 1.354C16.8891 1.354 16.5208 1.72234 16.5208 2.1665V3.7915H9.47915V2.1665C9.47915 1.72234 9.11082 1.354 8.66665 1.354C8.22248 1.354 7.85415 1.72234 7.85415 2.1665V3.8565C4.92915 4.12734 3.50998 5.8715 3.29332 8.46067C3.27165 8.77484 3.53165 9.03484 3.83498 9.03484H22.165C22.4791 9.03484 22.7391 8.764 22.7066 8.46067C22.49 5.8715 21.0708 4.12734 18.1458 3.8565Z" fill="#343434"/>
<path d="M21.6666 10.6602H4.33327C3.73744 10.6602 3.24994 11.1477 3.24994 11.7435V18.4168C3.24994 21.6668 4.87494 23.8335 8.66661 23.8335H17.3333C21.1249 23.8335 22.7499 21.6668 22.7499 18.4168V11.7435C22.7499 11.1477 22.2624 10.6602 21.6666 10.6602ZM9.97744 19.7277C9.92327 19.771 9.86911 19.8252 9.81494 19.8577C9.74994 19.901 9.68494 19.9335 9.61994 19.9552C9.55494 19.9877 9.48994 20.0093 9.42494 20.0202C9.34911 20.031 9.28411 20.0418 9.20827 20.0418C9.06744 20.0418 8.92661 20.0093 8.79661 19.9552C8.65577 19.901 8.54744 19.8252 8.43911 19.7277C8.24411 19.5218 8.12494 19.2402 8.12494 18.9585C8.12494 18.6768 8.24411 18.3952 8.43911 18.1893C8.54744 18.0918 8.65577 18.016 8.79661 17.9618C8.99161 17.8752 9.20827 17.8535 9.42494 17.8968C9.48994 17.9077 9.55494 17.9293 9.61994 17.9618C9.68494 17.9835 9.74994 18.016 9.81494 18.0593C9.86911 18.1027 9.92327 18.146 9.97744 18.1893C10.1724 18.3952 10.2916 18.6768 10.2916 18.9585C10.2916 19.2402 10.1724 19.5218 9.97744 19.7277ZM9.97744 15.936C9.77161 16.131 9.48994 16.2502 9.20827 16.2502C8.92661 16.2502 8.64494 16.131 8.43911 15.936C8.24411 15.7302 8.12494 15.4485 8.12494 15.1668C8.12494 14.8852 8.24411 14.6035 8.43911 14.3977C8.74244 14.0943 9.21911 13.9968 9.61994 14.1702C9.76077 14.2243 9.87994 14.3002 9.97744 14.3977C10.1724 14.6035 10.2916 14.8852 10.2916 15.1668C10.2916 15.4485 10.1724 15.7302 9.97744 15.936ZM13.7691 19.7277C13.5633 19.9227 13.2816 20.0418 12.9999 20.0418C12.7183 20.0418 12.4366 19.9227 12.2308 19.7277C12.0358 19.5218 11.9166 19.2402 11.9166 18.9585C11.9166 18.6768 12.0358 18.3952 12.2308 18.1893C12.6316 17.7885 13.3683 17.7885 13.7691 18.1893C13.9641 18.3952 14.0833 18.6768 14.0833 18.9585C14.0833 19.2402 13.9641 19.5218 13.7691 19.7277ZM13.7691 15.936C13.7149 15.9793 13.6608 16.0227 13.6066 16.066C13.5416 16.1093 13.4766 16.1418 13.4116 16.1635C13.3466 16.196 13.2816 16.2177 13.2166 16.2285C13.1408 16.2393 13.0758 16.2502 12.9999 16.2502C12.7183 16.2502 12.4366 16.131 12.2308 15.936C12.0358 15.7302 11.9166 15.4485 11.9166 15.1668C11.9166 14.8852 12.0358 14.6035 12.2308 14.3977C12.3283 14.3002 12.4474 14.2243 12.5883 14.1702C12.9891 13.9968 13.4658 14.0943 13.7691 14.3977C13.9641 14.6035 14.0833 14.8852 14.0833 15.1668C14.0833 15.4485 13.9641 15.7302 13.7691 15.936ZM17.5608 19.7277C17.3549 19.9227 17.0733 20.0418 16.7916 20.0418C16.5099 20.0418 16.2283 19.9227 16.0224 19.7277C15.8274 19.5218 15.7083 19.2402 15.7083 18.9585C15.7083 18.6768 15.8274 18.3952 16.0224 18.1893C16.4233 17.7885 17.1599 17.7885 17.5608 18.1893C17.7558 18.3952 17.8749 18.6768 17.8749 18.9585C17.8749 19.2402 17.7558 19.5218 17.5608 19.7277ZM17.5608 15.936C17.5066 15.9793 17.4524 16.0227 17.3983 16.066C17.3333 16.1093 17.2683 16.1418 17.2033 16.1635C17.1383 16.196 17.0733 16.2177 17.0083 16.2285C16.9324 16.2393 16.8566 16.2502 16.7916 16.2502C16.5099 16.2502 16.2283 16.131 16.0224 15.936C15.8274 15.7302 15.7083 15.4485 15.7083 15.1668C15.7083 14.8852 15.8274 14.6035 16.0224 14.3977C16.1308 14.3002 16.2391 14.2243 16.3799 14.1702C16.5749 14.0835 16.7916 14.0618 17.0083 14.1052C17.0733 14.116 17.1383 14.1377 17.2033 14.1702C17.2683 14.1918 17.3333 14.2243 17.3983 14.2677C17.4524 14.311 17.5066 14.3543 17.5608 14.3977C17.7558 14.6035 17.8749 14.8852 17.8749 15.1668C17.8749 15.4485 17.7558 15.7302 17.5608 15.936Z" fill="#343434"/>
</svg>
