<svg width="17" height="17" viewBox="0 0 17 17" fill="none" xmlns="http://www.w3.org/2000/svg">
<path d="M5.89158 0.0285015C5.87978 0.0450172 5.59428 0.533425 5.25924 1.11385L4.65286 2.17089H3.40471H2.15656V3.41904V4.66719L1.07592 5.29009C0.346852 5.71243 -0.00234758 5.92714 1.18754e-05 5.95074C0.00237133 5.97197 0.276068 6.46038 0.611111 7.03845C0.943795 7.61652 1.21749 8.09784 1.21749 8.10492C1.21749 8.112 0.943795 8.59333 0.611111 9.1714C0.276068 9.74946 0.00237133 10.2379 1.18754e-05 10.2591C-0.00234758 10.2851 0.346852 10.4974 1.07828 10.9198L2.15656 11.545V12.7908V14.039H3.40471H4.65286L5.25924 15.096C5.59428 15.6764 5.88214 16.1648 5.89865 16.1837C5.92461 16.212 6.09685 16.12 7.00996 15.5938L8.08823 14.9686L9.16178 15.5891C9.75401 15.9312 10.2471 16.2073 10.2589 16.2026C10.2707 16.1979 10.5586 15.7142 10.8983 15.1243L11.5189 14.0508L12.7718 14.0437L14.0246 14.039L14.0293 12.7861L14.0364 11.5356L15.0982 10.9221C15.6833 10.5847 16.1694 10.2992 16.1812 10.2874C16.193 10.2756 15.9311 9.80137 15.5819 9.19735C15.2421 8.60985 14.9613 8.11672 14.9613 8.10492C14.9613 8.09077 15.2421 7.6 15.5819 7.01249C15.9311 6.41083 16.193 5.93422 16.1812 5.92242C16.1694 5.91063 15.6833 5.62513 15.0982 5.28773L14.0364 4.67427L14.0293 3.42376L14.0246 2.17089L12.7718 2.16617L11.5189 2.15909L10.8983 1.08554C10.5586 0.495674 10.2707 0.0119858 10.2589 0.007267C10.2471 0.00254822 9.75401 0.278605 9.16178 0.620726L8.08823 1.24126L7.01704 0.620726C6.42717 0.278605 5.9364 0.000188828 5.92933 0.000188828C5.91989 0.000188828 5.90337 0.0143452 5.89158 0.0285015ZM11.7879 6.21972C12.0639 6.51229 12.2975 6.76947 12.3046 6.7907C12.3117 6.8143 12.314 6.84497 12.3069 6.86149C12.2975 6.88744 11.5826 7.53629 8.10475 10.6814L7.52432 11.2076L7.09962 10.7853C6.86603 10.554 6.22898 9.93822 5.68394 9.41678C5.13891 8.89534 4.67174 8.44468 4.64814 8.41165C4.61511 8.36918 4.60803 8.34087 4.62455 8.30784C4.65522 8.24177 5.74057 7.29091 5.78304 7.29091C5.80428 7.29091 5.90101 7.36877 6.00011 7.46315C6.97693 8.39985 7.56443 8.94489 7.58095 8.93781C7.59274 8.93545 8.41148 8.20166 9.40009 7.30743C10.4005 6.40611 11.2169 5.68648 11.2405 5.68648C11.2664 5.68648 11.4882 5.90119 11.7879 6.21972Z" fill="#79B3CD"/>
</svg>
