<svg width="14" height="14" viewBox="0 0 14 14" fill="none" xmlns="http://www.w3.org/2000/svg">
<path d="M5.7979 8.60075C4.46163 7.26445 4.1599 5.92814 4.09184 5.39275C4.07281 5.24471 4.12376 5.09625 4.22966 4.99108L5.31104 3.91016C5.47011 3.75118 5.49834 3.50342 5.37911 3.31273L3.65735 0.639155C3.52544 0.428004 3.2546 0.351797 3.03194 0.463186L0.267904 1.76497C0.0878496 1.85364 -0.0180562 2.04495 0.00238707 2.24461C0.147215 3.6205 0.747042 7.00278 4.07084 10.3269C7.39463 13.651 10.7764 14.2506 12.1529 14.3954C12.3526 14.4159 12.5439 14.31 12.6326 14.1299L13.9343 11.3658C14.0453 11.1436 13.9696 10.8735 13.7593 10.7414L11.0858 9.02004C10.8952 8.90068 10.6475 8.92871 10.4884 9.08763L9.40749 10.169C9.30233 10.2749 9.15387 10.3259 9.00584 10.3069C8.47046 10.2388 7.13418 9.93706 5.7979 8.60075Z" fill="#CFCFCF"/>
<path d="M11.1037 7.88158C10.837 7.88158 10.6209 7.66544 10.6209 7.39881C10.6186 5.40005 8.99893 3.7803 7.00021 3.77804C6.73359 3.77804 6.51746 3.5619 6.51746 3.29527C6.51746 3.02864 6.73359 2.8125 7.00021 2.8125C9.53195 2.81529 11.5836 4.86702 11.5864 7.39881C11.5864 7.66544 11.3703 7.88158 11.1037 7.88158Z" fill="#CFCFCF"/>
<path d="M13.5175 7.88137C13.2508 7.88137 13.0347 7.66523 13.0347 7.3986C13.031 4.06731 10.3314 1.3677 7.00021 1.36398C6.73359 1.36398 6.51746 1.14783 6.51746 0.881207C6.51746 0.614581 6.73359 0.398438 7.00021 0.398438C10.8644 0.402695 13.996 3.53428 14.0002 7.3986C14.0002 7.52664 13.9494 7.64943 13.8588 7.73997C13.7683 7.83051 13.6455 7.88137 13.5175 7.88137Z" fill="#CFCFCF"/>
</svg>
