<svg width="14" height="14" viewBox="0 0 14 14" fill="none" xmlns="http://www.w3.org/2000/svg">
<g clip-path="url(#clip0_71_2240)">
<path d="M6.99988 0C4.96444 0 3.30847 1.65596 3.30847 3.69141C3.30847 5.72685 4.96444 7.38281 6.99988 7.38281C9.03532 7.38281 10.6913 5.72685 10.6913 3.69141C10.6913 1.65596 9.03532 0 6.99988 0Z" fill="#CFCFCF"/>
<path d="M11.5927 9.79439C10.5821 8.76824 9.24231 8.20312 7.82019 8.20312H6.17957C4.75747 8.20312 3.41768 8.76824 2.40706 9.79439C1.40138 10.8155 0.847534 12.1634 0.847534 13.5898C0.847534 13.8164 1.03117 14 1.25769 14H12.7421C12.9686 14 13.1522 13.8164 13.1522 13.5898C13.1522 12.1634 12.5984 10.8155 11.5927 9.79439Z" fill="#CFCFCF"/>
</g>
<defs>
<clipPath id="clip0_71_2240">
<rect width="14" height="14" fill="white"/>
</clipPath>
</defs>
</svg>
