<svg width="14" height="11" viewBox="0 0 14 11" fill="none" xmlns="http://www.w3.org/2000/svg">
<path d="M0.852761 0.341324C0.773423 0.365946 0.707764 0.39604 0.707764 0.409719C0.707764 0.426134 2.07019 1.80224 3.73903 3.47107L6.76755 6.50234L6.89887 6.52149C7.20254 6.56252 6.96726 6.77318 10.2803 3.45466C11.9382 1.79403 13.2924 0.423398 13.2924 0.409719C13.2924 0.39604 13.2213 0.36321 13.1337 0.338588C12.9888 0.297551 12.4443 0.294816 6.98368 0.297551C1.66256 0.300287 0.978607 0.303023 0.852761 0.341324Z" fill="#CFCFCF"/>
<path d="M0.0618875 1.09313C0.0126431 1.2053 0.00990733 1.38039 0.00169994 5.16126C-0.00377165 8.61384 0.00169994 9.1309 0.0372653 9.25128C0.0591517 9.32788 0.0892454 9.40995 0.10566 9.43184C0.127547 9.46467 0.559802 9.04609 2.25873 7.34716L4.38718 5.21871L2.26694 3.09847C1.10149 1.93302 0.13849 0.97823 0.130282 0.97823C0.119339 0.97823 0.0892454 1.03021 0.0618875 1.09313Z" fill="#CFCFCF"/>
<path d="M11.7328 3.09847L9.61255 5.21871L11.741 7.34716C13.4399 9.04609 13.8722 9.46467 13.8941 9.43184C13.9105 9.40995 13.9406 9.32788 13.9625 9.25128C13.998 9.1309 14.0035 8.61384 13.998 5.16126C13.9898 1.38039 13.9871 1.2053 13.9378 1.09313C13.9105 1.03021 13.8804 0.97823 13.8694 0.97823C13.8612 0.97823 12.8982 1.93302 11.7328 3.09847Z" fill="#CFCFCF"/>
<path d="M2.806 7.9002C1.65149 9.05744 0.707642 10.015 0.707642 10.0287C0.707642 10.0423 0.778772 10.0752 0.866318 10.0998C1.01131 10.1408 1.55847 10.1436 6.99997 10.1436C12.4415 10.1436 12.9886 10.1408 13.1336 10.0998C13.2212 10.0752 13.2923 10.0423 13.2923 10.0287C13.2923 10.015 12.3457 9.05471 11.1885 7.89199L9.08465 5.77996L8.41711 6.43929C7.85354 7.00012 7.72496 7.11229 7.57449 7.18342C7.20516 7.36399 6.79205 7.36399 6.42819 7.18616C6.27499 7.11229 6.14914 7.00286 5.5883 6.44476C5.22718 6.08637 4.9235 5.79364 4.9153 5.79364C4.90982 5.79364 3.95777 6.74022 2.806 7.9002Z" fill="#CFCFCF"/>
</svg>
