<svg width="13" height="20" viewBox="0 0 13 20" fill="none" xmlns="http://www.w3.org/2000/svg">
<path fill-rule="evenodd" clip-rule="evenodd" d="M5.60555 0.0593372C3.14688 0.442646 1.10199 2.26359 0.331192 4.75619C-0.339823 6.92594 -0.0138206 8.95308 1.51656 12.1275C2.43135 14.0251 3.53817 15.8696 5.07504 18.058C5.71868 18.9745 6.48216 20 6.52081 20C6.53646 20 6.74409 19.7322 6.98224 19.4049C9.81635 15.5095 11.967 11.6166 12.6872 9.07875C12.9602 8.11659 13.0012 7.82888 13 6.88614C12.999 6.15536 12.9859 5.96575 12.91 5.59146C12.3704 2.92906 10.591 0.914661 8.16639 0.22159C7.40877 0.00500243 6.37447 -0.0605251 5.60555 0.0593372ZM7.26904 4.02711C8.20727 4.3317 8.8969 5.07226 9.19251 6.09263C9.32156 6.53804 9.3214 7.23529 9.19216 7.67966C8.87316 8.77663 8.16635 9.50265 7.15388 9.77345C6.516 9.94405 5.70608 9.82377 5.13857 9.47417C4.55858 9.11688 4.1218 8.55094 3.87618 7.83861C3.7794 7.558 3.77096 7.48316 3.77072 6.90703C3.77049 6.32764 3.7787 6.25547 3.88013 5.94646C4.12669 5.19517 4.64342 4.56829 5.29159 4.23405C5.77133 3.98669 6.0854 3.91736 6.62502 3.93983C6.86461 3.94981 7.15001 3.98848 7.26904 4.02711Z" fill="#79B3CD"/>
</svg>
