<svg width="17" height="13" viewBox="0 0 17 13" fill="none" xmlns="http://www.w3.org/2000/svg">
<path d="M1.14775 0.604554C1.12113 0.614534 1.03131 0.644475 0.951463 0.674417L0.808411 0.727646L2.03268 1.95524C4.95694 4.88616 7.62504 7.4977 7.7681 7.57089C8.23052 7.8071 8.76947 7.8071 9.23189 7.57089C9.37495 7.4977 12.043 4.88616 14.964 1.95524L16.1916 0.727646L16.0452 0.664436C15.9055 0.604554 15.6892 0.601227 8.5499 0.594573C4.50782 0.591247 1.17436 0.5979 1.14775 0.604554Z" fill="#79B3CD"/>
<path d="M0.0598826 1.57234C0.00332681 1.72538 0 1.94827 0 6.58917C0 11.3765 0 11.4496 0.0665362 11.5894L0.133072 11.7324L2.72798 9.15414L5.3229 6.57919L4.34149 5.59113C3.80254 5.04886 2.63151 3.8878 1.73992 3.00953L0.123092 1.41266L0.0598826 1.57234Z" fill="#79B3CD"/>
<path d="M14.272 3.99426L11.6771 6.57254L14.272 9.15082L16.8669 11.7324L16.9335 11.5894C17 11.4496 17 11.3765 17 6.57254C17 1.76863 17 1.69544 16.9335 1.55571L16.8669 1.41266L14.272 3.99426Z" fill="#79B3CD"/>
<path d="M3.3967 9.84023L0.805115 12.4118L0.951494 12.4784C1.09787 12.5449 1.14445 12.5449 8.48339 12.5449C15.6294 12.5449 15.8756 12.5416 16.0319 12.4817L16.1916 12.4185L15.1836 11.4072C14.628 10.8516 13.457 9.69052 12.582 8.82887L10.9918 7.26195L10.5527 7.69111C10.0337 8.20343 9.92057 8.29326 9.60453 8.45295C8.74621 8.8821 7.70492 8.77232 6.95639 8.17017C6.84328 8.08034 6.59044 7.84414 6.3875 7.6412C6.18789 7.43827 6.0149 7.27193 6.00492 7.27193C5.99494 7.27193 4.82057 8.42966 3.3967 9.84023Z" fill="#79B3CD"/>
</svg>
