<svg width="7" height="11" viewBox="0 0 7 11" fill="none" xmlns="http://www.w3.org/2000/svg">
<path d="M0.311943 0.0515468C0.18293 0.111753 0.103372 0.193461 0.0453161 0.322474C-0.0148901 0.453638 -0.0148901 0.664359 0.045316 0.795522C0.0775692 0.87078 0.597922 1.40188 2.39335 3.19732L4.69839 5.5045L2.39335 7.80954C0.600071 9.60497 0.0775676 10.1382 0.0453143 10.2135C-0.0471451 10.4178 0.00661031 10.7166 0.163576 10.8628C0.324843 11.0134 0.602221 11.0542 0.806492 10.9575C0.959157 10.8843 5.95412 5.88724 6.01862 5.74103C6.08098 5.60126 6.07883 5.39699 6.01217 5.25723C5.93906 5.10456 0.941957 0.109603 0.795742 0.0450963C0.655978 -0.0172601 0.451707 -0.0151099 0.311943 0.0515468Z" fill="#79B3CD"/>
</svg>
