<svg width="45" height="45" viewBox="0 0 45 45" fill="none" xmlns="http://www.w3.org/2000/svg">
<path d="M20.3863 10.1505C15.2373 11.0535 11.1395 15.2339 10.1633 20.6071C9.9273 21.9114 9.94875 24.2413 10.2169 25.6125C10.7104 28.0985 11.7509 30.1719 13.4565 32.0113C18.316 37.2619 26.3936 37.34 31.3495 32.1785C32.7441 30.7293 33.7417 29.0572 34.3531 27.1732C35.4044 23.8957 35.1684 20.217 33.6881 17.1736C31.8752 13.4391 28.5283 10.864 24.5485 10.1505C23.4221 9.94983 21.5341 9.94983 20.3863 10.1505ZM26.4365 15.6575C26.9943 16.3041 26.8656 16.5828 25.2779 18.2438L23.9263 19.6596L24.9561 19.7042C25.7821 19.7376 26.0396 19.7933 26.2756 19.9717C26.8548 20.4176 26.8334 21.2537 26.2327 21.655C25.9752 21.8334 25.6748 21.8557 23.4865 21.8557H21.03L20.7189 21.4878C20.1396 20.8189 20.2254 20.6183 21.813 18.9573L23.2183 17.4746L22.1241 17.43C21.0407 17.3854 21.0192 17.3854 20.7189 17.0287C20.5258 16.8057 20.4078 16.5493 20.4078 16.3487C20.4078 15.9585 20.8476 15.3677 21.1909 15.3008C21.3196 15.2673 22.4781 15.2562 23.7654 15.2562L26.1147 15.2785L26.4365 15.6575ZM24.0872 24.3974C24.4412 24.6426 24.6236 25.0885 24.5378 25.4787C24.4948 25.6348 23.8619 26.3928 23.1218 27.162L21.7809 28.5778L22.8107 28.6224C23.6367 28.6558 23.8941 28.7116 24.1301 28.8899C24.7094 29.3359 24.6879 30.1719 24.0872 30.5733C23.8298 30.7516 23.5294 30.7739 21.341 30.7739H18.8845L18.5734 30.406C17.9942 29.7372 18.08 29.5365 19.6676 27.8755L21.0729 26.3928L19.9787 26.3482C18.8952 26.3037 18.8738 26.3037 18.5734 25.9469C18.3803 25.724 18.2623 25.4676 18.2623 25.2669C18.2623 24.8767 18.7022 24.2859 19.0454 24.219C19.1742 24.1856 20.3005 24.1744 21.5341 24.1856C23.5187 24.1967 23.8298 24.219 24.0872 24.3974Z" fill="white"/>
</svg>
