<svg width="45" height="45" viewBox="0 0 45 45" fill="none" xmlns="http://www.w3.org/2000/svg">
<path d="M16.5802 11.0751C16.4819 11.1267 16.3741 11.2391 16.3132 11.3657C16.2101 11.5624 16.2054 11.628 16.2054 12.5183V13.4648L15.5307 13.4836C14.781 13.5023 14.7013 13.5304 14.4858 13.8491C14.2796 14.1489 14.3827 14.6081 14.7013 14.819C14.8466 14.9174 14.9122 14.9268 15.5307 14.9268H16.2054V15.8967C16.2054 16.7682 16.2148 16.8854 16.2991 17.0587C16.5521 17.5788 17.3346 17.5835 17.583 17.0634C17.6439 16.9322 17.658 16.7307 17.658 15.9201V14.9314L18.3842 14.9174L19.1105 14.9033L19.2792 14.73C19.4291 14.5847 19.4573 14.5191 19.476 14.3036C19.4994 13.9803 19.3963 13.7507 19.1621 13.6054C19.0121 13.5117 18.9184 13.4976 18.328 13.4789L17.658 13.4648V12.4949C17.658 11.4359 17.6298 11.3094 17.3674 11.1173C17.1847 10.9814 16.7911 10.958 16.5802 11.0751Z" fill="white"/>
<path d="M22.391 11.9796C21.8475 12.1951 21.7491 13.0011 22.2176 13.3853C22.2739 13.4321 22.4191 13.4931 22.5363 13.5212C22.8268 13.5915 23.0938 13.5212 23.3 13.315C23.8014 12.809 23.45 11.9234 22.7471 11.9327C22.6159 11.9327 22.4566 11.9562 22.391 11.9796Z" fill="white"/>
<path d="M26.5276 12.1623C26.2793 12.3122 26.2324 12.4387 26.0871 13.329C26.0122 13.7882 25.9091 14.2849 25.8575 14.4302C25.6561 14.9643 25.1453 15.4751 24.6112 15.6719C24.4706 15.7281 23.9786 15.8265 23.5288 15.8968C22.929 15.9905 22.6619 16.0514 22.5588 16.1217C22.2543 16.3232 22.1559 16.7917 22.3573 17.0822C22.5495 17.3634 22.6385 17.4009 23.5709 17.5461C24.5784 17.7007 24.9064 17.8226 25.2906 18.1834C25.7826 18.6473 25.9278 18.994 26.0965 20.1467C26.209 20.9339 26.2652 21.0744 26.5276 21.2712C26.7056 21.4024 27.118 21.4024 27.296 21.2712C27.5584 21.0744 27.5912 20.9807 27.7365 20.053C27.9005 18.9753 28.0317 18.666 28.4768 18.2396C28.9126 17.8226 29.2078 17.7101 30.248 17.5461C31.157 17.4056 31.2648 17.3681 31.4475 17.1197C31.6725 16.8152 31.5413 16.2622 31.1992 16.0889C31.1102 16.0467 30.6885 15.9577 30.2621 15.8921C29.4421 15.7656 29.1937 15.7 28.8657 15.5079C28.5705 15.3345 28.3691 15.1424 28.1863 14.8659C27.9427 14.4958 27.8818 14.2896 27.7365 13.3759C27.6522 12.8605 27.5678 12.4809 27.5116 12.3872C27.3335 12.0873 26.8368 11.9702 26.5276 12.1623Z" fill="white"/>
<path d="M15.4657 19.0551C14.8987 19.3362 14.8894 20.189 15.4516 20.4889C15.8078 20.6763 16.2107 20.6107 16.4544 20.3202C16.8105 19.8938 16.698 19.3081 16.206 19.0598C15.9483 18.9286 15.7234 18.9286 15.4657 19.0551Z" fill="white"/>
<path d="M30.4266 19.0785C30.1126 19.2425 29.9814 19.4628 29.9814 19.8282C29.9814 20.2827 30.3188 20.6201 30.7733 20.6201C31.4996 20.6201 31.8651 19.8329 31.4012 19.28C31.1763 19.0129 30.7265 18.9192 30.4266 19.0785Z" fill="white"/>
<path d="M11.417 23.7829C11.3233 23.8345 11.1968 23.9423 11.1359 24.0266C11.0281 24.1812 11.0281 24.1812 11.0141 25.9477L11 27.7189H11.1265C11.2202 27.7189 11.417 27.5549 12.0168 26.9645C12.6868 26.3085 12.8321 26.1914 13.1507 26.0414C13.4975 25.8728 13.5303 25.8681 14.0269 25.8681C14.5143 25.8681 14.5611 25.8774 14.8704 26.0227C15.1421 26.1539 15.3108 26.2945 15.9012 26.8708C16.2854 27.2503 16.6556 27.5971 16.7212 27.6439C16.8524 27.7283 17.1945 27.7423 17.3444 27.6674C17.4006 27.6393 17.7755 27.2925 18.1738 26.8942C19.0687 26.0133 19.2936 25.8821 19.9824 25.854C20.779 25.8165 21.0695 25.9712 22.091 26.9786L22.8454 27.7189H23.1171H23.3889L24.1667 26.9551C24.8087 26.3226 25.0008 26.1633 25.2725 26.0274C25.5865 25.8728 25.6193 25.8681 26.1394 25.8681C26.6501 25.8681 26.697 25.8774 27.0016 26.0227C27.2686 26.1492 27.442 26.2898 28.0605 26.9036C29.1663 27.9907 29.157 27.9907 30.1597 27.0067C30.5392 26.6318 30.9469 26.2664 31.064 26.182C31.72 25.7369 32.6993 25.7322 33.3272 26.1726C33.5709 26.3413 33.7677 26.5522 34.2222 27.1332C34.6205 27.6439 34.672 27.6955 34.8688 27.7283L35 27.7517L34.9859 25.9665L34.9719 24.1812L34.8641 24.0266C34.8032 23.9423 34.672 23.8345 34.5736 23.7829C34.3909 23.6892 34.255 23.6892 22.9906 23.6892C11.8059 23.6939 11.5857 23.6939 11.417 23.7829Z" fill="white"/>
<path d="M13.8489 27.2971C13.7739 27.3205 13.385 27.6579 12.9774 28.0608C12.1433 28.8761 11.7872 29.1057 11.2671 29.1573L11 29.1854L11.0141 30.1038C11.0281 30.98 11.0328 31.0315 11.1359 31.1768C11.1968 31.2611 11.328 31.3689 11.4264 31.4204C11.6091 31.5142 11.745 31.5142 23 31.5142C34.255 31.5142 34.3909 31.5142 34.5736 31.4204C34.672 31.3689 34.8032 31.2611 34.8641 31.1768C34.9672 31.0315 34.9719 30.98 34.9859 30.0944L35 29.1713H34.8079C34.7048 29.1713 34.4986 29.1292 34.3581 29.0776C33.8754 28.9089 33.6552 28.7262 33.0929 28.0187C32.2823 26.9972 32.2355 26.9972 31.1812 28.0374C30.7923 28.4216 30.3846 28.7918 30.2768 28.8574C29.7005 29.2182 28.9321 29.2744 28.3276 28.9933C28.0558 28.8668 27.8918 28.7309 27.2265 28.0796C26.1207 26.9925 26.1488 26.9925 25.0148 28.117C24.401 28.7262 24.237 28.8621 23.9606 28.9933C23.6513 29.1385 23.6045 29.1479 23.1171 29.1479C22.6345 29.1479 22.583 29.1385 22.2784 28.9933C22.0066 28.8668 21.8333 28.7215 21.196 28.0983C20.0808 26.9972 20.0949 26.9972 19.0219 28.0608C18.6189 28.4591 18.1972 28.8386 18.08 28.9042C17.4287 29.2744 16.59 29.2557 15.9574 28.8574C15.8497 28.7918 15.4326 28.4122 15.0297 28.014C14.6267 27.6204 14.2659 27.2971 14.2331 27.2971C14.1956 27.2971 14.1253 27.2877 14.0738 27.2736C14.0223 27.2643 13.9192 27.2736 13.8489 27.2971Z" fill="white"/>
</svg>
