<svg width="45" height="45" viewBox="0 0 45 45" fill="none" xmlns="http://www.w3.org/2000/svg">
<path d="M20.3027 11.6064V13.208L19.9023 13.3252C19.3018 13.4912 18.584 13.7793 18.0127 14.082L17.5 14.3506L16.4014 13.252C15.791 12.6465 15.2734 12.1484 15.249 12.1484C15.1855 12.1484 12.1484 15.1855 12.1484 15.249C12.1484 15.2734 12.6465 15.791 13.252 16.4014L14.3506 17.5L14.082 18.0127C13.7842 18.5791 13.4961 19.292 13.3203 19.8975L13.2031 20.3027H11.6016H10V22.5V24.6973H11.6016H13.1982L13.4375 25.4395C13.584 25.8984 13.8037 26.4355 14.0137 26.8408L14.3457 27.5049L13.2471 28.6035C12.6416 29.209 12.1484 29.7266 12.1484 29.751C12.1484 29.8145 15.1855 32.8516 15.249 32.8516C15.2734 32.8516 15.791 32.3584 16.3965 31.7529L17.4951 30.6543L18.1592 30.9912C18.5742 31.1963 19.1064 31.416 19.5654 31.5625L20.3027 31.8018V33.3984V35H22.5H24.6973V33.3984V31.8018L25.4395 31.5625C25.8984 31.416 26.4355 31.1963 26.8408 30.9863L27.5049 30.6543L28.6035 31.7529C29.209 32.3584 29.7266 32.8516 29.751 32.8516C29.8145 32.8516 32.8516 29.8145 32.8516 29.751C32.8516 29.7266 32.3584 29.209 31.748 28.5986L30.6494 27.5L30.9424 26.9385C31.2549 26.3428 31.5576 25.6152 31.7285 25.0488L31.8359 24.6973H33.418H35V22.5V20.3027H33.418H31.8359L31.7285 19.9512C31.5576 19.3848 31.2549 18.6572 30.9424 18.0615L30.6494 17.5L31.748 16.4014C32.3584 15.791 32.8516 15.2734 32.8516 15.249C32.8516 15.1855 29.8145 12.1484 29.751 12.1484C29.7266 12.1484 29.209 12.6416 28.6035 13.2471L27.5049 14.3457L26.7969 13.9893C26.3525 13.7695 25.8301 13.5547 25.3955 13.418L24.6973 13.1982V11.5967V10H22.5H20.3027V11.6064ZM23.1348 15.9814C23.8672 16.0254 24.6533 16.2549 25.4297 16.6406C27.2754 17.5684 28.6133 19.3701 28.9697 21.4062C29.0625 21.9531 29.0625 23.0469 28.9697 23.5938C28.4912 26.3232 26.3232 28.4912 23.5889 28.9697C23.0322 29.0674 21.9678 29.0674 21.4111 28.9697C18.6768 28.4912 16.5088 26.3232 16.0303 23.5938C15.9375 23.0469 15.9375 21.9531 16.0303 21.4062C16.543 18.4619 19.043 16.1768 21.9824 15.9619C22.2559 15.9424 22.5293 15.9326 22.5977 15.9375C22.666 15.9473 22.9053 15.9668 23.1348 15.9814Z" fill="white"/>
<path d="M21.4795 17.4463C19.8242 17.8174 18.5303 18.8379 17.832 20.3223C17.7441 20.5127 17.6074 20.8643 17.5342 21.1084C17.4072 21.5234 17.4023 21.6016 17.4023 22.5C17.4023 23.3984 17.4072 23.4766 17.5342 23.8916C18.0762 25.6689 19.3359 26.9287 21.1084 27.4658C21.5234 27.5879 21.6016 27.5977 22.5 27.5977C23.3936 27.5977 23.4814 27.5879 23.8916 27.4658C25.6494 26.9385 26.9238 25.6641 27.4658 23.8916C27.5928 23.4766 27.5977 23.3984 27.5977 22.5C27.5977 21.6016 27.5928 21.5234 27.4658 21.1084C27.0215 19.6582 26.1084 18.5498 24.8193 17.9102C24.0137 17.5098 23.6035 17.4121 22.6221 17.3926C22.0264 17.3779 21.7041 17.3975 21.4795 17.4463ZM23.4766 23.2568L21.7676 24.9658L20.791 23.9893L19.8145 23.0127L20.3125 22.5146L20.8154 22.0117L21.2891 22.4854L21.7676 22.9639L22.9736 21.7529L24.1846 20.5469L24.6826 21.0449L25.1855 21.5479L23.4766 23.2568Z" fill="white"/>
</svg>
