<svg width="45" height="45" viewBox="0 0 45 45" fill="none" xmlns="http://www.w3.org/2000/svg">
<path d="M22.0545 10.0467C20.5724 10.2313 19.0954 11.098 18.1774 12.3134C17.7723 12.8468 17.3466 13.7288 17.1774 14.3801C17.0133 15.0007 16.9569 16.0828 17.0492 16.7751C17.4492 19.7649 19.4236 22.8317 21.4903 23.6676C22.075 23.9035 22.3776 23.9548 23.0289 23.9241C23.9366 23.8882 24.6699 23.5702 25.5059 22.8574C26.8854 21.683 28.0906 19.5342 28.5521 17.4213C28.6496 16.97 28.665 16.7341 28.665 15.8879C28.6701 14.7853 28.6137 14.4724 28.2855 13.6468C27.3059 11.1903 24.7469 9.71331 22.0545 10.0467Z" fill="white"/>
<path d="M17.7721 23.1189C15.7259 23.5599 13.9566 24.9036 13.013 26.7498C12.6797 27.396 12.4181 28.1703 12.3104 28.8524C12.1976 29.514 12.2284 30.8217 12.3617 31.2987C12.7515 32.6884 13.7259 33.3551 15.7208 33.5859C16.5824 33.6885 29.1161 33.6885 29.9777 33.5859C31.9726 33.3551 32.947 32.6884 33.3368 31.2987C33.4701 30.8217 33.5009 29.514 33.3881 28.8524C33.2188 27.8114 32.7368 26.6626 32.1162 25.8164C31.5111 24.9907 30.5367 24.1702 29.6187 23.7087C28.9315 23.3651 27.7366 23.0163 27.234 23.0163C27.0853 23.0163 27.0648 23.0368 27.034 23.1907C26.9468 23.6471 26.0186 24.7343 24.7878 25.8164C24.0749 26.4421 22.9159 27.3754 22.8492 27.3754C22.7826 27.3754 21.6236 26.4421 20.9107 25.8164C19.6799 24.7343 18.7517 23.6471 18.6645 23.1907C18.6337 23.0266 18.6235 23.0163 18.4183 23.0215C18.3055 23.0215 18.0132 23.0676 17.7721 23.1189ZM28.7982 27.5088C28.8289 27.5806 28.8494 27.878 28.8494 28.1755V28.7088H29.4187C29.7315 28.7088 30.029 28.7345 30.0854 28.7601C30.1726 28.8114 30.1828 28.8729 30.1828 29.4268C30.1828 30.2166 30.2033 30.1961 29.4341 30.1961H28.8494V30.7294C28.8494 31.0269 28.8289 31.3243 28.7982 31.3961C28.7469 31.5294 28.7469 31.5294 28.111 31.5294C27.5263 31.5294 27.4648 31.5192 27.4135 31.432C27.3879 31.3756 27.3622 31.0781 27.3622 30.7653V30.1961H26.793C26.4801 30.1961 26.1827 30.1704 26.1263 30.1448C26.0391 30.0935 26.0288 30.0319 26.0288 29.4524C26.0288 28.8729 26.0391 28.8114 26.1263 28.7601C26.1827 28.7345 26.4801 28.7088 26.793 28.7088H27.3622V28.1396C27.3622 27.8267 27.3879 27.5293 27.4135 27.4729C27.4648 27.3857 27.5263 27.3754 28.111 27.3754C28.7469 27.3754 28.7469 27.3754 28.7982 27.5088Z" fill="white"/>
</svg>
