<svg width="45" height="45" viewBox="0 0 45 45" fill="none" xmlns="http://www.w3.org/2000/svg">
<path d="M22.2358 12.0649C20.3411 12.3301 18.5911 13.0581 17.058 14.2248C16.5325 14.6249 15.7033 15.4348 15.2742 15.9651C13.7556 17.8405 12.8927 20.1739 12.8637 22.4638C12.8589 23.1388 12.8878 23.2304 13.2205 23.4522C13.4471 23.6112 13.8569 23.6064 14.0931 23.4473C14.3486 23.2738 14.4113 23.0906 14.445 22.4301C14.5704 20.1257 15.4237 18.1057 16.9519 16.4858C18.7212 14.6153 21.0932 13.5836 23.629 13.5787C24.5016 13.5787 25.0416 13.6366 25.7792 13.8102C27.1387 14.1283 28.3729 14.7358 29.4673 15.6132C29.9638 16.0133 30.7352 16.7944 31.0003 17.1704L31.1594 17.3922H30.7063C30.1904 17.3922 30.012 17.4693 29.8337 17.773C29.6312 18.1201 29.7517 18.5974 30.094 18.824C30.2483 18.9349 30.2772 18.9349 31.7042 18.9349C33.0686 18.9349 33.165 18.9301 33.3144 18.8385C33.4012 18.7854 33.5121 18.6745 33.5651 18.5878C33.6567 18.4383 33.6615 18.3419 33.6615 16.9824C33.6615 15.6228 33.6567 15.5264 33.5651 15.377C33.4205 15.1456 33.2035 15.0299 32.8902 15.0299C32.437 15.0299 32.1188 15.3191 32.1188 15.7386V15.941L31.4101 15.2275C30.6822 14.4996 30.041 13.9837 29.3178 13.545C27.9969 12.7544 26.5891 12.2578 25.1139 12.0649C24.4197 11.9782 22.8866 11.9782 22.2358 12.0649Z" fill="white"/>
<path d="M21.0401 18.26C20.7219 18.4529 20.693 18.5637 20.693 19.5713V20.4777H19.7915C18.779 20.4777 18.6682 20.5066 18.4753 20.8248C18.3837 20.9742 18.3789 21.0707 18.3789 22.7918C18.3789 24.5129 18.3837 24.6093 18.4753 24.7587C18.6682 25.0769 18.779 25.1058 19.7915 25.1058H20.693V26.0074C20.693 27.0198 20.7219 27.1307 21.0401 27.3235C21.1896 27.4151 21.286 27.4199 23.0119 27.4199C24.8149 27.4199 24.8246 27.4199 24.9837 27.309C25.3067 27.0969 25.3453 26.9667 25.3597 25.9833L25.379 25.1058H26.2564C27.0905 25.1058 27.1483 25.101 27.2978 24.995C27.3894 24.9371 27.5051 24.8118 27.5581 24.7202C27.6545 24.5562 27.6593 24.4791 27.6593 22.7918C27.6593 21.1044 27.6545 21.0273 27.5581 20.8634C27.5051 20.7718 27.3894 20.6464 27.2978 20.5886C27.1483 20.4825 27.0905 20.4777 26.2564 20.4777H25.379L25.3597 19.5954C25.3453 18.6168 25.3067 18.4866 24.9837 18.2745C24.8246 18.1636 24.8149 18.1636 23.0119 18.1636C21.286 18.1636 21.1896 18.1684 21.0401 18.26Z" fill="white"/>
<path d="M32.4566 22.1313C32.1673 22.3194 32.1191 22.4688 32.0709 23.2353C31.9986 24.4406 31.7816 25.3759 31.3333 26.4172C29.969 29.6039 26.8353 31.8119 23.4268 31.9903C21.1658 32.1108 19.1121 31.4985 17.3235 30.1824C16.6533 29.681 15.7084 28.7072 15.2504 28.0322L15.0962 27.8057H15.4192C16.0266 27.8057 16.3737 27.5116 16.3737 27.0102C16.3737 26.692 16.2291 26.4461 15.9495 26.316C15.7566 26.2195 15.6602 26.2147 14.3923 26.2147C13.081 26.2147 13.0376 26.2195 12.8351 26.3256C12.4494 26.5281 12.4446 26.557 12.4591 28.2395C12.4735 29.898 12.4687 29.8787 12.864 30.0715C13.4281 30.3511 13.9921 29.9751 13.9921 29.3243V29.0447L14.2284 29.3532C15.6891 31.272 17.8248 32.6845 20.1823 33.2823C21.7299 33.6728 23.6486 33.6969 25.2444 33.345C26.7533 33.0123 28.3684 32.2362 29.6315 31.2382C30.1329 30.8429 31.0826 29.8739 31.4779 29.3436C32.8374 27.5309 33.5799 25.4675 33.6474 23.3221C33.6667 22.5797 33.6618 22.517 33.5702 22.3676C33.4208 22.1313 33.2038 22.0205 32.8857 22.0205C32.6832 22.0205 32.5723 22.0494 32.4566 22.1313Z" fill="white"/>
</svg>
