<svg width="24" height="24" viewBox="0 0 24 24" fill="none" xmlns="http://www.w3.org/2000/svg">
<path d="M11.8155 2.18619L9.431 7.73677H7.04652C6.65076 7.73677 6.26489 7.76645 5.88892 7.8456L6.87832 5.47102L6.9179 5.38198L6.97727 5.22367C7.00695 5.15441 7.02674 5.09505 7.05642 5.04558C8.20413 2.38407 9.49036 1.55296 11.8155 2.18619Z" fill="#343434"/>
<path d="M18.5264 8.00319L18.5066 7.9933C17.913 7.8251 17.3094 7.73605 16.696 7.73605H10.5023L12.7285 2.56145L12.7582 2.49219C12.8967 2.54166 13.0451 2.61092 13.1935 2.66039L15.3801 3.58054C16.5971 4.08513 17.448 4.60952 17.9724 5.24274C18.0614 5.36147 18.1406 5.47031 18.2197 5.59893C18.3088 5.73745 18.378 5.87596 18.4176 6.02438C18.4572 6.11342 18.4868 6.19257 18.5066 6.28162C18.655 6.78622 18.6649 7.36008 18.5264 8.00319Z" fill="#343434"/>
<path d="M12.3879 17.4731H12.6353C12.9321 17.4731 13.1795 17.206 13.1795 16.8795C13.1795 16.4639 13.0607 16.4046 12.8035 16.3056L12.3879 16.1572V17.4731Z" fill="#343434"/>
<path d="M18.0967 9.42078C17.6514 9.29216 17.1864 9.2229 16.7016 9.2229H7.04499C6.37219 9.2229 5.73897 9.35152 5.14532 9.60877C3.42375 10.3508 2.21667 12.0625 2.21667 14.0512V15.9806C2.21667 16.218 2.23646 16.4456 2.26615 16.683C2.48382 19.8294 4.16581 21.5114 7.31213 21.7191C7.53969 21.7488 7.76726 21.7686 8.01461 21.7686H15.732C19.3928 21.7686 21.3222 20.0272 21.5101 16.5643C21.52 16.3763 21.5299 16.1784 21.5299 15.9806V14.0512C21.5299 11.8646 20.0755 10.0243 18.0967 9.42078ZM13.1397 15.3374C13.5949 15.4957 14.2083 15.8321 14.2083 16.8809C14.2083 17.7813 13.5058 18.5036 12.6351 18.5036H12.3878V18.7212C12.3878 19.0081 12.1602 19.2357 11.8733 19.2357C11.5864 19.2357 11.3588 19.0081 11.3588 18.7212V18.5036H11.2698C10.3199 18.5036 9.5383 17.7021 9.5383 16.7127C9.5383 16.4258 9.76586 16.1982 10.0528 16.1982C10.3397 16.1982 10.5673 16.4258 10.5673 16.7127C10.5673 17.1283 10.8839 17.4746 11.2698 17.4746H11.3588V15.8025L10.6069 15.5353C10.1517 15.377 9.5383 15.0406 9.5383 13.9918C9.5383 13.0915 10.2408 12.3692 11.1115 12.3692H11.3588V12.1515C11.3588 11.8646 11.5864 11.6371 11.8733 11.6371C12.1602 11.6371 12.3878 11.8646 12.3878 12.1515V12.3692H12.4768C13.4267 12.3692 14.2083 13.1706 14.2083 14.16C14.2083 14.447 13.9807 14.6745 13.6938 14.6745C13.4069 14.6745 13.1793 14.447 13.1793 14.16C13.1793 13.7445 12.8627 13.3982 12.4768 13.3982H12.3878V15.0703L13.1397 15.3374Z" fill="#343434"/>
<path d="M10.5682 13.9911C10.5682 14.4067 10.687 14.466 10.9442 14.565L11.3598 14.7134V13.3975H11.1124C10.8057 13.3975 10.5682 13.6646 10.5682 13.9911Z" fill="#343434"/>
</svg>
