<svg width="45" height="45" viewBox="0 0 45 45" fill="none" xmlns="http://www.w3.org/2000/svg">
<path d="M24.6726 15.7629L21.914 18.5215L23.1816 19.7891C24.4663 21.0695 24.621 21.2629 24.621 21.5422C24.621 21.8516 24.5179 21.9719 22.7991 23.6992C20.8054 25.7059 20.8612 25.6285 20.8612 26.4277C20.8612 26.8488 20.8741 26.9262 20.9773 27.1496C21.321 27.8801 22.1245 28.3098 22.9023 28.1766C23.5038 28.0734 23.2589 28.2969 28.3292 23.2352C30.8987 20.6656 32.9999 18.5473 32.9999 18.5215C32.9999 18.4656 27.5343 13 27.4784 13C27.4526 13 26.1937 14.2418 24.6726 15.7629Z" fill="white"/>
<path d="M16.689 17.6492C15.2109 19.1359 15.0433 19.3207 14.9359 19.5613C14.7812 19.918 14.7296 20.2488 14.7812 20.5969C14.8628 21.1898 14.837 21.1598 17.587 23.9098L20.0964 26.4148L20.1308 26.1699C20.1738 25.8133 20.2683 25.5211 20.4402 25.2031C20.5648 24.9754 20.8913 24.623 22.2406 23.2695C23.1472 22.3586 23.8906 21.5852 23.8906 21.5508C23.8906 21.4777 18.4378 16.0078 18.3691 16.0078C18.3433 16.0078 17.587 16.7469 16.689 17.6492Z" fill="white"/>
<path d="M16.9811 25.3922C16.4827 25.8992 16.4569 25.9336 16.4569 26.1055C16.4569 26.3504 16.5987 26.4922 16.8522 26.4922C17.0327 26.4922 17.0542 26.475 17.5655 25.9637L18.0897 25.4395L17.7975 25.1473L17.5053 24.8551L16.9811 25.3922Z" fill="white"/>
<path d="M15.4041 27.0035C15.1979 27.1281 14.6608 27.7125 14.6264 27.8414C14.5877 28.0004 14.7038 28.2453 14.8498 28.2969C15.0991 28.3914 15.1678 28.357 15.6061 27.9188C15.9885 27.5363 16.0272 27.4848 16.0272 27.3344C16.0272 27.2141 15.9971 27.141 15.9026 27.0465C15.7522 26.9004 15.5932 26.8832 15.4041 27.0035Z" fill="white"/>
<path d="M20.0319 28.4387C19.5249 28.9457 19.5077 28.9715 19.5077 29.1477C19.5077 29.4012 19.6495 29.543 19.8944 29.543C20.0663 29.543 20.1007 29.5172 20.6077 29.0188C20.8999 28.7309 21.1405 28.4859 21.1405 28.4688C21.1405 28.4559 21.0073 28.327 20.8483 28.1809L20.5518 27.9187L20.0319 28.4387Z" fill="white"/>
<path d="M13.2686 29.1004C13.0796 29.2852 12.8991 29.4871 12.8647 29.5516C12.71 29.848 12.8776 30.1445 13.1956 30.1445C13.3675 30.1445 13.3975 30.123 13.7886 29.7406C14.171 29.3625 14.2011 29.3238 14.2011 29.1605C14.2011 28.9113 14.055 28.7695 13.8014 28.7695C13.621 28.7695 13.5909 28.7867 13.2686 29.1004Z" fill="white"/>
<path d="M18.0811 30.3938C17.6428 30.832 17.6084 30.9008 17.703 31.15C17.7588 31.3004 17.9737 31.4035 18.1455 31.3648C18.3002 31.3348 18.9147 30.7633 19.0221 30.557C19.1639 30.2863 18.9662 29.9727 18.6569 29.9727C18.5194 29.9727 18.4549 30.0199 18.0811 30.3938Z" fill="white"/>
<path d="M11.7518 30.6559C11.6831 30.6988 11.4811 30.8793 11.3093 31.0598C11.0214 31.3605 10.9999 31.3949 10.9999 31.5668C11.0042 31.773 11.0514 31.8633 11.2104 31.9449C11.4081 32.0523 11.5628 31.975 11.9796 31.5453C12.3448 31.1715 12.3749 31.1328 12.3749 30.9695C12.3749 30.8277 12.3491 30.7762 12.2417 30.6859C12.087 30.5527 11.928 30.5441 11.7518 30.6559Z" fill="white"/>
<path d="M16.6932 31.816C16.646 31.8375 16.4397 32.0266 16.2335 32.2414C15.8811 32.598 15.8553 32.6367 15.8553 32.8043C15.8553 33.0019 15.9542 33.1309 16.1346 33.1781C16.3366 33.2297 16.4741 33.1523 16.8565 32.7656C17.2132 32.4047 17.2303 32.3789 17.2303 32.1984C17.2303 32.0566 17.2046 31.9836 17.1315 31.9148C17.0198 31.8074 16.8178 31.7644 16.6932 31.816Z" fill="white"/>
<path d="M14.4546 34.0203C14.0249 34.4371 13.9475 34.5918 14.055 34.7895C14.1366 34.9484 14.2268 34.9957 14.4288 35C14.5964 35 14.635 34.9785 14.9573 34.6691C15.1464 34.4844 15.3311 34.2824 15.3655 34.218C15.5202 33.9215 15.3569 33.625 15.0347 33.625C14.8671 33.625 14.8327 33.6508 14.4546 34.0203Z" fill="white"/>
</svg>
