<?xml version="1.0" encoding="utf-8"?><svg xmlns="http://www.w3.org/2000/svg" xmlns:xlink="http://www.w3.org/1999/xlink"><symbol viewBox="0 0 6 12" id="angle-left" xmlns="http://www.w3.org/2000/svg">
    <path d="M.34 6.493a.698.698 0 010-.987l4.444-4.444a.698.698 0 11.988.988L1.822 6l3.95 3.95a.698.698 0 11-.988.987L.341 6.493zm1.193.205H.834V5.3h.699v1.397z"/>
</symbol><symbol viewBox="0 0 6 12" id="angle-right" xmlns="http://www.w3.org/2000/svg">
    <path d="M5.66 6.493a.698.698 0 000-.987L1.215 1.062a.698.698 0 10-.988.988L4.178 6 .228 9.95a.698.698 0 10.988.987l4.443-4.444zm-1.193.205h.699V5.3h-.699v1.397z"/>
</symbol><symbol viewBox="0 0 26 26" id="calendar" xmlns="http://www.w3.org/2000/svg">
    <path d="M18.146 3.857v-1.69a.818.818 0 00-.813-.813.818.818 0 00-.812.813v1.625H9.479V2.167a.818.818 0 00-.812-.813.818.818 0 00-.813.813v1.69C4.93 4.127 3.51 5.87 3.294 8.46a.544.544 0 00.541.574h18.33c.314 0 .574-.271.542-.574-.217-2.59-1.636-4.334-4.561-4.604zM21.667 10.66H4.333c-.596 0-1.083.488-1.083 1.083v6.674c0 3.25 1.625 5.416 5.417 5.416h8.666c3.792 0 5.417-2.166 5.417-5.416v-6.674c0-.595-.488-1.083-1.083-1.083zm-11.69 9.068c-.054.043-.108.097-.162.13a.823.823 0 01-.195.097.69.69 0 01-.195.065c-.076.011-.14.022-.217.022a1.08 1.08 0 01-.411-.087c-.141-.054-.25-.13-.358-.227a1.14 1.14 0 01-.314-.77c0-.281.12-.563.314-.769.108-.097.217-.173.358-.227.195-.087.411-.108.628-.065a.69.69 0 01.195.065c.065.021.13.054.195.097l.162.13c.195.206.315.488.315.77 0 .281-.12.563-.315.769zm0-3.792a1.14 1.14 0 01-.769.314 1.14 1.14 0 01-.769-.314 1.14 1.14 0 01-.314-.77c0-.28.12-.563.314-.768.303-.304.78-.401 1.18-.228.142.054.26.13.358.228.195.206.315.487.315.769 0 .281-.12.563-.315.769zm3.792 3.792a1.14 1.14 0 01-.77.314c-.28 0-.562-.12-.768-.314a1.14 1.14 0 01-.314-.77c0-.281.119-.563.314-.769.4-.4 1.137-.4 1.538 0 .195.206.314.488.314.77 0 .281-.119.563-.314.769zm0-3.792l-.162.13a.823.823 0 01-.195.098.688.688 0 01-.195.064c-.076.011-.141.022-.217.022a1.14 1.14 0 01-.77-.314 1.14 1.14 0 01-.313-.77c0-.28.119-.563.314-.768a1.01 1.01 0 01.357-.228c.401-.173.878-.076 1.181.228.195.206.314.487.314.769 0 .281-.119.563-.314.769zm3.792 3.792a1.14 1.14 0 01-.77.314 1.14 1.14 0 01-.769-.314 1.14 1.14 0 01-.314-.77c0-.281.12-.563.314-.769.401-.4 1.138-.4 1.539 0 .195.206.314.488.314.77 0 .281-.12.563-.314.769zm0-3.792l-.163.13a.823.823 0 01-.195.098.688.688 0 01-.195.064c-.076.011-.151.022-.216.022a1.14 1.14 0 01-.77-.314 1.14 1.14 0 01-.314-.77c0-.28.12-.563.314-.768.109-.098.217-.174.358-.228.195-.086.412-.108.628-.065.065.011.13.033.195.065.065.022.13.054.195.098l.163.13c.195.206.314.487.314.769 0 .281-.12.563-.314.769z"/>
</symbol><symbol viewBox="0 0 10 5" id="caret-down" xmlns="http://www.w3.org/2000/svg">
    <path d="M5 5L9.33.5H.67L5 5z"/>
</symbol><symbol fill="none" viewBox="0 0 45 45" id="feature__01" xmlns="http://www.w3.org/2000/svg">
    <path d="M23 13l3.056 5.793 6.455 1.117-4.566 4.697.933 6.483L23 28.2l-5.878 2.89.933-6.483-4.566-4.697 6.454-1.117L23 13z" fill="#fff"/>
</symbol><symbol fill="none" viewBox="0 0 45 45" id="feature__02" xmlns="http://www.w3.org/2000/svg">
    <path d="M20.73 30.745V13.386h2.946v17.359h-2.945zm-7.206-7.207v-2.945h17.359v2.945H13.524z" fill="#fff"/>
</symbol><symbol fill="none" viewBox="0 0 45 45" id="feature__03" xmlns="http://www.w3.org/2000/svg">
    <path d="M26.144 12.048c-.859.137-1.59.426-2.382.95-.36.234-.77.632-4.946 4.808s-4.574 4.586-4.809 4.946C13.292 23.834 13 24.81 13 26.092c0 .992.172 1.738.606 2.617a5.805 5.805 0 002.676 2.676c.879.433 1.625.605 2.617.605 1.281 0 2.258-.293 3.34-1.008.36-.234.77-.632 4.945-4.808 4.176-4.176 4.575-4.587 4.81-4.946.714-1.082 1.007-2.059 1.007-3.34 0-.992-.172-1.738-.605-2.617a5.518 5.518 0 00-1.118-1.559A5.879 5.879 0 0028 12.044c-.41-.066-1.426-.062-1.856.004zm1.797 1.875c1.543.328 2.797 1.586 3.133 3.149.11.508.09 1.305-.039 1.808a4.12 4.12 0 01-.57 1.274c-.176.273-.563.68-2.227 2.355l-2.012 2.024-2.883-2.883-2.882-2.883 1.98-1.976c1.094-1.09 2.098-2.063 2.239-2.165a4.606 4.606 0 011.855-.761c.328-.051 1.035-.02 1.406.058zm-8.695 6.48a.442.442 0 01.238.4c0 .14 0-2.036-3.211.847-3.586 5.399.078 2.488 0 2.606-.328.503-.48.933-.543 1.539-.05.46 1.531.441 1.352.531-.247.113.898-2.445.84-2.715-.07-.309-2.958 1.332-2.727.824.289-.64.469-.855 2.055-2.453.824-.828 1.554-1.535 1.625-1.57.152-.075.234-.078.37-.008z" fill="#fff"/>
</symbol><symbol fill="none" viewBox="0 0 14 11" id="field-email" xmlns="http://www.w3.org/2000/svg">
    <path d="M.853.341C.773.366.708.396.708.41c0 .016 1.362 1.392 3.031 3.061l3.029 3.031.13.02c.305.04.07.251 3.382-3.067C11.938 1.794 13.292.423 13.292.41c0-.014-.07-.047-.158-.071-.145-.041-.69-.044-6.15-.041C1.663.3.979.303.853.34zM.062 1.093c-.05.112-.052.287-.06 4.068-.006 3.453 0 3.97.035 4.09a.837.837 0 00.069.18c.022.034.454-.385 2.153-2.084L4.387 5.22l-2.12-2.12A207.158 207.158 0 00.13.978c-.01 0-.04.051-.068.114zM11.733 3.098l-2.12 2.12 2.128 2.13c1.699 1.698 2.131 2.117 2.153 2.084a.839.839 0 00.069-.18c.035-.121.04-.638.035-4.09-.008-3.782-.01-3.957-.06-4.069-.027-.063-.058-.115-.069-.115-.008 0-.97.955-2.136 2.12z" fill="#CFCFCF"/>
    <path d="M2.806 7.9C1.651 9.057.708 10.015.708 10.03c0 .013.07.046.158.07.145.042.692.045 6.134.045 5.441 0 5.989-.003 6.134-.044.087-.025.158-.058.158-.071 0-.014-.946-.974-2.104-2.137L9.085 5.78l-.668.66c-.563.56-.692.672-.843.743-.369.181-.782.181-1.146.003-.153-.074-.279-.183-.84-.741a20.113 20.113 0 00-.673-.651c-.005 0-.957.946-2.109 2.106z" fill="#CFCFCF"/>
</symbol><symbol fill="none" viewBox="0 0 14 14" id="field-phone" xmlns="http://www.w3.org/2000/svg">
    <path d="M5.798 8.6C4.462 7.265 4.16 5.929 4.092 5.394a.48.48 0 01.138-.402l1.081-1.08a.483.483 0 00.068-.598L3.657.639a.483.483 0 00-.625-.176L.268 1.765a.48.48 0 00-.266.48c.145 1.375.745 4.758 4.069 8.082 3.324 3.324 6.705 3.924 8.082 4.068a.48.48 0 00.48-.265l1.301-2.764a.483.483 0 00-.175-.625L11.086 9.02a.483.483 0 00-.598.068l-1.08 1.081a.48.48 0 01-.402.138c-.536-.068-1.872-.37-3.208-1.706z" fill="#CFCFCF"/>
    <path d="M11.104 7.882a.483.483 0 01-.483-.483A3.625 3.625 0 007 3.778a.483.483 0 010-.966A4.591 4.591 0 0111.585 7.4a.483.483 0 01-.482.483z" fill="#CFCFCF"/>
    <path d="M13.518 7.881a.483.483 0 01-.483-.482A6.041 6.041 0 007 1.364a.483.483 0 010-.966 7.008 7.008 0 017 7 .483.483 0 01-.482.483z" fill="#CFCFCF"/>
</symbol><symbol fill="none" viewBox="0 0 14 14" id="field-user" xmlns="http://www.w3.org/2000/svg">
    <path d="M7 0a3.696 3.696 0 00-3.692 3.691A3.696 3.696 0 007 7.383 3.696 3.696 0 0010.69 3.69 3.696 3.696 0 007 0zM11.593 9.794a5.262 5.262 0 00-3.773-1.59H6.18a5.262 5.262 0 00-3.773 1.59 5.38 5.38 0 00-1.56 3.796c0 .226.184.41.41.41h11.485a.41.41 0 00.41-.41 5.38 5.38 0 00-1.56-3.796z" fill="#CFCFCF"/>
</symbol><symbol fill="none" viewBox="0 0 17 13" id="icon-email" xmlns="http://www.w3.org/2000/svg">
    <path d="M1.148.605c-.027.01-.117.04-.197.07L.808.727l1.225 1.227c2.924 2.931 5.592 5.543 5.735 5.616a1.6 1.6 0 001.464 0c.143-.073 2.811-2.685 5.732-5.616L16.192.728l-.147-.064c-.14-.06-.356-.063-7.495-.07-4.042-.003-7.376.004-7.402.01zM.06 1.572C.003 1.725 0 1.948 0 6.59c0 4.787 0 4.86.067 5l.066.143 2.595-2.578L5.323 6.58l-.982-.988C3.803 5.05 2.631 3.888 1.74 3.01L.123 1.413l-.063.16zM14.272 3.994l-2.595 2.579 2.595 2.578 2.595 2.581.066-.143c.067-.14.067-.213.067-5.016 0-4.804 0-4.878-.067-5.017l-.066-.143-2.595 2.581z" fill="#79B3CD"/>
    <path d="M3.397 9.84L.805 12.412l.146.066c.147.067.193.067 7.532.067 7.146 0 7.393-.003 7.549-.063l.16-.063-1.008-1.012a595.11 595.11 0 00-2.602-2.578l-1.59-1.567-.44.43c-.518.511-.631.601-.947.76-.859.43-1.9.32-2.649-.282a9.112 9.112 0 01-.569-.529c-.2-.203-.372-.37-.382-.37-.01 0-1.184 1.159-2.608 2.57z" fill="#79B3CD"/>
</symbol><symbol fill="none" viewBox="0 0 17 17" id="icon-phone" xmlns="http://www.w3.org/2000/svg">
    <path d="M6.887 3.9C6.666 1.355 4.011.106 3.898.055a.564.564 0 00-.337-.046C.496.518.035 2.302.016 2.377a.574.574 0 00.012.313C3.684 14.04 11.283 16.144 13.78 16.836c.193.053.351.096.472.136a.573.573 0 00.418-.025c.076-.034 1.881-.885 2.323-3.66a.578.578 0 00-.056-.355c-.04-.077-.984-1.874-3.602-2.51a.565.565 0 00-.512.122c-.826.706-1.967 1.458-2.46 1.536-3.3-1.615-5.143-4.713-5.212-5.3-.04-.331.716-1.492 1.586-2.435a.579.579 0 00.15-.444z" fill="#79B3CD"/>
</symbol><symbol fill="none" viewBox="0 0 13 20" id="icon-pin" xmlns="http://www.w3.org/2000/svg">
    <path fill-rule="evenodd" clip-rule="evenodd" d="M5.606.06C3.146.442 1.102 2.263.33 4.755c-.67 2.17-.345 4.197 1.186 7.371.914 1.898 2.021 3.743 3.558 5.931C5.719 18.974 6.482 20 6.521 20c.015 0 .223-.268.461-.595 2.834-3.896 4.985-7.788 5.705-10.326.273-.962.314-1.25.313-2.193-.001-.73-.014-.92-.09-1.295C12.37 2.93 10.591.915 8.166.221 7.41.006 6.374-.06 5.606.06zm1.663 3.967c.938.305 1.628 1.045 1.924 2.066.129.445.128 1.142 0 1.587-.32 1.097-1.027 1.823-2.04 2.093-.637.171-1.447.05-2.014-.299-.58-.357-1.017-.923-1.263-1.635-.097-.281-.105-.356-.105-.932 0-.58.008-.652.11-.96.246-.752.762-1.379 1.41-1.713.48-.247.794-.317 1.334-.294.24.01.525.048.644.087z" fill="#79B3CD"/>
</symbol><symbol viewBox="0 0 7 11" id="link-arrow-right" xmlns="http://www.w3.org/2000/svg">
    <path d="M.312.052a.506.506 0 00-.267.27.642.642 0 000 .474c.033.075.553.606 2.348 2.401l2.305 2.308L2.393 7.81C.6 9.605.078 10.138.045 10.214c-.092.204-.038.503.119.649.16.15.438.191.642.095.153-.074 5.148-5.07 5.213-5.217a.63.63 0 00-.007-.484C5.94 5.105.942.11.796.045a.63.63 0 00-.484.007z"/>
</symbol><symbol viewBox="0 0 16 8" id="long-arrow-right" xmlns="http://www.w3.org/2000/svg">
    <path d="M15.425 4.354a.5.5 0 000-.708L12.243.464a.5.5 0 10-.707.708L14.364 4l-2.828 2.828a.5.5 0 10.707.708l3.182-3.182zM.929 4.5h14.142v-1H.93v1z"/>
</symbol><symbol fill="none" viewBox="0 0 45 45" id="modal-icon-01" xmlns="http://www.w3.org/2000/svg">
    <path d="M20.386 10.15c-5.149.903-9.246 5.084-10.223 10.457-.236 1.304-.214 3.634.054 5.006.493 2.486 1.534 4.559 3.24 6.398 4.859 5.25 12.937 5.329 17.892.167a12.854 12.854 0 003.004-5.005c1.051-3.277.815-6.956-.665-10-1.813-3.734-5.16-6.309-9.14-7.022-1.126-.201-3.014-.201-4.162 0zm6.05 5.508c.558.646.43.925-1.158 2.586l-1.352 1.416 1.03.044c.826.034 1.084.09 1.32.268.579.446.557 1.282-.043 1.683-.258.178-.558.2-2.747.2H21.03l-.311-.367c-.58-.67-.494-.87 1.094-2.53l1.405-1.483-1.094-.045c-1.083-.045-1.105-.045-1.405-.401-.193-.223-.311-.48-.311-.68 0-.39.44-.981.783-1.048.129-.034 1.287-.045 2.574-.045l2.35.022.322.38zm-2.349 8.74c.354.245.537.69.45 1.08-.042.157-.675.915-1.415 1.684l-1.341 1.416 1.03.044c.826.034 1.083.09 1.32.268.578.446.557 1.282-.044 1.683-.257.179-.558.2-2.746.2h-2.457l-.31-.367c-.58-.669-.494-.87 1.094-2.53l1.405-1.483-1.094-.045c-1.084-.044-1.105-.044-1.406-.401-.193-.223-.31-.48-.31-.68 0-.39.44-.981.782-1.048.13-.033 1.255-.045 2.49-.033 1.984.01 2.295.033 2.552.211z" fill="#fff"/>
</symbol><symbol fill="none" viewBox="0 0 45 45" id="modal-icon-02" xmlns="http://www.w3.org/2000/svg">
    <path d="M16.58 11.075a.676.676 0 00-.267.29c-.103.197-.108.263-.108 1.153v.947l-.674.019c-.75.018-.83.046-1.045.365-.206.3-.103.76.215.97.146.098.211.108.83.108h.674v.97c0 .871.01.988.094 1.162.253.52 1.036.524 1.284.004.06-.13.075-.332.075-1.143v-.989l.726-.014.726-.014.17-.173c.15-.145.177-.21.196-.426.023-.324-.08-.553-.314-.699-.15-.093-.244-.107-.834-.126l-.67-.014v-.97c0-1.06-.028-1.186-.29-1.378-.183-.136-.577-.159-.788-.042zM22.391 11.98c-.543.215-.642 1.021-.173 1.405a.97.97 0 00.318.136c.29.07.558 0 .764-.206.501-.506.15-1.392-.553-1.382-.131 0-.29.023-.356.047zM26.528 12.162c-.249.15-.296.277-.44 1.167-.076.46-.179.956-.23 1.101-.202.534-.713 1.045-1.247 1.242-.14.056-.632.154-1.082.225-.6.094-.867.154-.97.225-.305.201-.403.67-.202.96.192.281.282.319 1.214.464 1.007.155 1.335.277 1.72.637.492.464.637.811.805 1.964.113.787.17.927.432 1.124.178.131.59.131.768 0 .262-.197.295-.29.44-1.218.165-1.078.296-1.387.74-1.813.437-.417.732-.53 1.772-.694.909-.14 1.017-.178 1.2-.426.224-.305.093-.858-.249-1.031-.089-.042-.51-.131-.937-.197-.82-.126-1.068-.192-1.396-.384a1.943 1.943 0 01-.68-.642c-.243-.37-.304-.576-.45-1.49-.084-.515-.168-.895-.224-.989-.178-.3-.675-.417-.984-.225zM15.466 19.055c-.567.281-.577 1.134-.014 1.434.356.187.759.122 1.002-.169.357-.426.244-1.012-.248-1.26a.757.757 0 00-.74-.005zM30.427 19.078c-.314.165-.446.385-.446.75a.77.77 0 00.792.792c.727 0 1.092-.787.628-1.34-.225-.267-.674-.36-.974-.202zM11.417 23.783c-.094.051-.22.16-.281.244-.108.154-.108.154-.122 1.92L11 27.72h.127c.093 0 .29-.164.89-.755.67-.655.815-.773 1.134-.923.347-.168.38-.173.876-.173.487 0 .534.01.843.155.272.13.44.271 1.031.848.384.38.755.726.82.773.131.084.474.098.623.023.057-.028.431-.375.83-.773.895-.88 1.12-1.012 1.808-1.04.797-.037 1.088.117 2.109 1.125l.754.74h.544l.778-.764c.642-.632.834-.792 1.105-.928.315-.154.347-.159.867-.159.511 0 .558.01.863.155.267.126.44.267 1.059.88 1.105 1.088 1.096 1.088 2.099.104.38-.375.787-.74.904-.825.656-.445 1.635-.45 2.263-.01.244.17.44.38.895.961.398.51.45.563.647.595l.131.024-.014-1.785-.014-1.786-.108-.154a.984.984 0 00-.29-.244c-.183-.094-.319-.094-11.583-.094-11.185.005-11.405.005-11.574.094z" fill="#fff"/>
    <path d="M13.849 27.297c-.075.023-.464.36-.872.764-.834.815-1.19 1.045-1.71 1.096l-.267.028.014.919c.014.876.019.928.122 1.073.06.084.192.192.29.243.183.094.319.094 11.574.094 11.255 0 11.39 0 11.574-.094a.982.982 0 00.29-.243c.103-.145.108-.197.122-1.083l.014-.923h-.192a1.64 1.64 0 01-.45-.093c-.483-.17-.703-.352-1.265-1.06-.81-1.02-.858-1.02-1.912.02-.389.384-.796.754-.904.82-.576.36-1.345.416-1.95.135-.271-.126-.435-.262-1.1-.913-1.106-1.087-1.078-1.087-2.212.037-.614.61-.778.745-1.054.876-.31.146-.356.155-.844.155-.483 0-.534-.01-.839-.155-.271-.126-.445-.271-1.082-.895-1.115-1.1-1.101-1.1-2.174-.037-.403.398-.825.778-.942.843-.651.37-1.49.352-2.123-.047-.107-.065-.524-.445-.927-.843-.403-.394-.764-.717-.797-.717a.724.724 0 01-.16-.023.559.559 0 00-.224.023z" fill="#fff"/>
</symbol><symbol fill="none" viewBox="0 0 45 45" id="modal-icon-03" xmlns="http://www.w3.org/2000/svg">
    <path d="M22.236 12.065a10.985 10.985 0 00-5.178 2.16c-.526.4-1.355 1.21-1.784 1.74-1.518 1.875-2.381 4.209-2.41 6.499-.005.675.024.766.356.988.227.16.637.154.873-.005.256-.173.318-.356.352-1.017.125-2.304.979-4.324 2.507-5.944 1.77-1.87 4.141-2.902 6.677-2.907.873 0 1.413.058 2.15.231a9.193 9.193 0 013.688 1.803c.497.4 1.268 1.181 1.533 1.557l.16.222h-.454c-.516 0-.694.077-.872.381-.203.347-.082.824.26 1.051.154.11.183.11 1.61.11 1.365 0 1.461-.004 1.61-.096a.888.888 0 00.251-.25c.092-.15.096-.246.096-1.606s-.004-1.456-.096-1.605c-.145-.231-.361-.347-.675-.347-.453 0-.771.29-.771.709v.202l-.709-.714c-.728-.727-1.369-1.243-2.092-1.682a10.88 10.88 0 00-4.204-1.48c-.694-.087-2.227-.087-2.878 0z" fill="#fff"/>
    <path d="M21.04 18.26c-.318.193-.347.304-.347 1.311v.907h-.902c-1.012 0-1.123.029-1.316.347-.091.15-.096.246-.096 1.967 0 1.72.005 1.817.096 1.967.193.318.304.347 1.316.347h.902v.901c0 1.013.029 1.124.347 1.316.15.092.246.097 1.972.097 1.803 0 1.813 0 1.972-.111.323-.212.361-.342.376-1.326l.019-.877h.877c.834 0 .892-.005 1.042-.111a.942.942 0 00.26-.275c.096-.164.101-.24.101-1.928s-.005-1.765-.1-1.929a.941.941 0 00-.261-.274c-.15-.106-.207-.111-1.042-.111h-.877l-.02-.883c-.014-.978-.052-1.108-.375-1.32-.16-.111-.17-.111-1.972-.111-1.726 0-1.822.004-1.972.096z" fill="#fff"/>
    <path d="M32.457 22.131c-.29.188-.338.338-.386 1.104-.072 1.206-.29 2.14-.738 3.182-1.364 3.187-4.498 5.395-7.906 5.573-2.261.12-4.315-.491-6.104-1.808-.67-.501-1.615-1.475-2.073-2.15l-.154-.226h.323c.608 0 .955-.294.955-.796 0-.318-.145-.564-.424-.694-.193-.096-.29-.101-1.558-.101-1.311 0-1.354.005-1.557.11-.386.203-.39.232-.376 1.915.014 1.658.01 1.639.405 1.832.564.28 1.128-.097 1.128-.748v-.28l.236.31a10.924 10.924 0 005.954 3.928c1.548.39 3.467.415 5.062.063 1.51-.333 3.124-1.109 4.387-2.107.502-.395 1.452-1.364 1.847-1.894 1.36-1.813 2.102-3.877 2.17-6.022.019-.742.014-.805-.078-.954-.15-.237-.366-.348-.684-.348-.203 0-.314.03-.43.111z" fill="#fff"/>
</symbol><symbol fill="none" viewBox="0 0 45 45" id="modal-icon-04" xmlns="http://www.w3.org/2000/svg">
    <path d="M20.303 11.606v1.602l-.4.117c-.601.166-1.319.454-1.89.757l-.513.269-1.099-1.099c-.61-.606-1.128-1.104-1.152-1.104-.064 0-3.1 3.037-3.1 3.101 0 .024.498.542 1.103 1.152l1.099 1.099-.269.513c-.298.566-.586 1.279-.762 1.884l-.117.406H10v4.394H13.198l.24.742c.146.46.366.997.576 1.402l.332.664-1.099 1.099c-.605.605-1.099 1.123-1.099 1.147 0 .063 3.037 3.1 3.101 3.1.024 0 .542-.493 1.147-1.098l1.1-1.099.663.337c.415.205.947.425 1.406.572l.738.239V35h4.394V31.802l.742-.24a9.686 9.686 0 001.402-.576l.664-.332 1.099 1.099c.605.605 1.123 1.099 1.147 1.099.063 0 3.1-3.037 3.1-3.101 0-.024-.493-.542-1.103-1.152L30.649 27.5l.293-.561c.313-.596.616-1.324.787-1.89l.107-.352H35v-4.394h-3.164l-.107-.352a11.698 11.698 0 00-.787-1.89l-.293-.561 1.099-1.099c.61-.61 1.104-1.128 1.104-1.152 0-.064-3.037-3.1-3.101-3.1-.024 0-.542.493-1.148 1.098l-1.098 1.099-.708-.357c-.445-.22-.967-.434-1.402-.571l-.698-.22V10h-4.394v1.606zm2.832 4.375c.732.044 1.518.274 2.295.66a6.676 6.676 0 013.54 4.765c.093.547.093 1.64 0 2.188a6.649 6.649 0 01-5.381 5.376c-.557.097-1.621.097-2.178 0a6.649 6.649 0 01-5.38-5.376c-.093-.547-.093-1.64 0-2.188.512-2.944 3.012-5.23 5.951-5.444.274-.02.547-.03.616-.024.068.01.307.029.537.043z" fill="#fff"/>
    <path d="M21.48 17.446c-1.656.371-2.95 1.392-3.648 2.876-.088.19-.225.542-.298.786-.127.415-.132.494-.132 1.392 0 .898.005.977.132 1.392.542 1.777 1.802 3.037 3.574 3.574.415.122.494.132 1.392.132.894 0 .981-.01 1.392-.132 1.757-.527 3.032-1.802 3.574-3.574.127-.415.132-.494.132-1.392 0-.898-.005-.977-.132-1.392-.445-1.45-1.358-2.558-2.647-3.198-.805-.4-1.215-.498-2.197-.517-.596-.015-.918.005-1.142.053zm1.997 5.81l-1.71 1.71-.976-.977-.977-.976.498-.498.503-.503.474.473.479.479 1.206-1.211 1.21-1.206.499.498.503.503-1.71 1.709z" fill="#fff"/>
</symbol><symbol fill="none" viewBox="0 0 45 45" id="modal-icon-05" xmlns="http://www.w3.org/2000/svg">
    <path d="M22.055 10.047c-1.483.184-2.96 1.051-3.878 2.266-.405.534-.83 1.416-1 2.067-.164.62-.22 1.703-.128 2.395.4 2.99 2.375 6.057 4.441 6.893.585.236.888.287 1.539.256.908-.036 1.64-.354 2.477-1.067 1.38-1.174 2.585-3.323 3.046-5.436.098-.451.113-.687.113-1.533.005-1.103-.051-1.416-.38-2.241-.98-2.457-3.538-3.934-6.23-3.6z" fill="#fff"/>
    <path d="M17.772 23.119c-2.046.44-3.815 1.785-4.759 3.63a7.31 7.31 0 00-.703 2.103c-.112.662-.082 1.97.052 2.447.39 1.39 1.364 2.056 3.359 2.287.861.102 13.395.102 14.257 0 1.995-.23 2.969-.898 3.359-2.287.133-.477.164-1.785.051-2.447a7.44 7.44 0 00-1.272-3.036c-.605-.825-1.58-1.646-2.497-2.107-.688-.344-1.882-.693-2.385-.693-.149 0-.17.02-.2.175-.087.456-1.015 1.543-2.246 2.625-.713.626-1.872 1.56-1.939 1.56-.066 0-1.225-.934-1.938-1.56-1.231-1.082-2.16-2.169-2.247-2.625-.03-.164-.04-.175-.246-.17-.113 0-.405.047-.646.098zm11.026 4.39c.03.072.051.369.051.666v.534h.57c.313 0 .61.026.666.051.088.051.098.113.098.667 0 .79.02.77-.749.77h-.585v.532c0 .298-.02.595-.05.667-.052.133-.052.133-.688.133-.585 0-.646-.01-.698-.097-.025-.056-.05-.354-.05-.667v-.569h-.57c-.313 0-.61-.026-.667-.051-.087-.052-.097-.113-.097-.693s.01-.64.097-.692c.057-.026.354-.051.667-.051h.57v-.57c0-.312.025-.61.05-.666.052-.087.113-.098.698-.098.636 0 .636 0 .687.134z" fill="#fff"/>
</symbol><symbol viewBox="0 0 24 24" id="money" xmlns="http://www.w3.org/2000/svg">
    <path d="M11.816 2.186L9.43 7.736H7.047c-.396 0-.782.03-1.158.11l.99-2.375.039-.089.06-.158c.029-.07.049-.129.078-.178 1.148-2.662 2.434-3.493 4.76-2.86zM18.526 8.003l-.02-.01a6.616 6.616 0 00-1.81-.257h-6.194l2.226-5.175.03-.069c.139.05.287.119.436.168l2.186.92c1.217.505 2.068 1.03 2.592 1.663.09.118.169.227.248.356.089.138.158.277.198.425.04.09.069.169.089.258.148.504.158 1.078.02 1.721zM12.388 17.473h.247c.297 0 .545-.267.545-.593 0-.416-.12-.475-.377-.574l-.415-.149v1.316z"/>
    <path d="M18.097 9.42a5.004 5.004 0 00-1.395-.197H7.045c-.673 0-1.306.129-1.9.386a4.842 4.842 0 00-2.928 4.442v1.93c0 .237.02.465.05.702.217 3.146 1.899 4.828 5.045 5.036.228.03.455.05.703.05h7.717c3.66 0 5.59-1.742 5.778-5.205.01-.188.02-.386.02-.583v-1.93a4.848 4.848 0 00-3.433-4.63zm-4.957 5.917c.455.159 1.068.495 1.068 1.544 0 .9-.702 1.623-1.573 1.623h-.247v.217a.511.511 0 01-.515.515.511.511 0 01-.514-.515v-.217h-.09c-.95 0-1.73-.802-1.73-1.791 0-.287.227-.515.514-.515.287 0 .514.228.514.515 0 .415.317.762.703.762h.089v-1.673l-.752-.267c-.455-.158-1.069-.494-1.069-1.543 0-.9.703-1.623 1.573-1.623h.248v-.217a.51.51 0 01.514-.515.51.51 0 01.515.514v.218h.089c.95 0 1.731.802 1.731 1.791a.511.511 0 01-.514.514.511.511 0 01-.515-.514c0-.415-.316-.762-.702-.762h-.09v1.672l.753.267z"/>
    <path d="M10.568 13.991c0 .416.119.475.376.574l.416.148v-1.315h-.248c-.306 0-.544.267-.544.593z"/>
</symbol><symbol viewBox="0 0 20 19" id="star" xmlns="http://www.w3.org/2000/svg">
    <path d="M10 0l3.056 5.793 6.455 1.117-4.566 4.697.933 6.483L10 15.2l-5.878 2.89.933-6.483L.489 6.91l6.455-1.117L10 0z"/>
</symbol><symbol fill="none" viewBox="0 0 45 45" id="warranty" xmlns="http://www.w3.org/2000/svg">
    <path d="M24.673 15.763l-2.759 2.758 1.268 1.268c1.284 1.28 1.439 1.474 1.439 1.753 0 .31-.103.43-1.822 2.157-1.994 2.007-1.938 1.93-1.938 2.729 0 .42.013.498.116.722.344.73 1.148 1.16 1.925 1.027.602-.104.357.12 5.427-4.942 2.57-2.57 4.67-4.688 4.67-4.713C33 18.465 27.535 13 27.48 13c-.026 0-1.285 1.242-2.806 2.763z" fill="#fff"/>
    <path d="M16.689 17.65c-1.478 1.486-1.646 1.67-1.753 1.911a1.84 1.84 0 00-.155 1.036c.082.593.056.563 2.806 3.313l2.51 2.505.034-.245c.043-.357.137-.649.31-.967.124-.228.45-.58 1.8-1.933.906-.911 1.65-1.685 1.65-1.72 0-.072-5.453-5.542-5.522-5.542-.026 0-.782.739-1.68 1.641zM16.981 25.392c-.498.507-.524.542-.524.713 0 .245.142.387.395.387.18 0 .202-.017.713-.528l.525-.524-.293-.293-.292-.292-.524.537zM15.404 27.003c-.206.125-.743.71-.778.838-.038.16.078.404.224.456.25.094.318.06.756-.378.383-.383.421-.434.421-.585 0-.12-.03-.193-.124-.287-.15-.147-.31-.164-.499-.044zM20.032 28.439c-.507.507-.524.532-.524.709 0 .253.142.395.386.395.172 0 .207-.026.714-.524.292-.288.532-.533.532-.55a2.88 2.88 0 00-.292-.288l-.296-.262-.52.52zM13.269 29.1c-.19.185-.37.387-.404.452-.155.296.013.593.33.593.172 0 .203-.022.594-.404.382-.378.412-.417.412-.58 0-.25-.146-.392-.4-.392-.18 0-.21.018-.532.331zM18.081 30.394c-.438.438-.473.507-.378.756.056.15.27.254.442.215.155-.03.77-.602.877-.808a.4.4 0 00-.365-.584c-.138 0-.202.047-.576.42zM11.752 30.656c-.069.043-.27.223-.443.404-.288.3-.31.335-.31.507.005.206.052.296.211.378.198.107.353.03.77-.4.365-.373.395-.412.395-.576 0-.141-.026-.193-.133-.283-.155-.133-.314-.142-.49-.03zM16.693 31.816c-.047.021-.253.21-.46.425-.352.357-.378.396-.378.563 0 .198.1.327.28.374.202.052.34-.026.721-.412.357-.361.374-.387.374-.568 0-.141-.025-.214-.099-.283-.111-.108-.313-.15-.438-.099zM14.455 34.02c-.43.417-.508.572-.4.77.082.158.172.206.374.21.167 0 .206-.022.528-.33.19-.186.374-.388.409-.452.154-.297-.01-.593-.331-.593-.168 0-.202.026-.58.395z" fill="#fff"/>
</symbol></svg>