<svg width="53" height="11" viewBox="0 0 53 11" fill="none" xmlns="http://www.w3.org/2000/svg">
<path d="M4.40683 1.55551C4.56092 1.2944 4.93864 1.2944 5.09273 1.55551L6.20866 3.44652C6.26467 3.54144 6.35752 3.6089 6.46511 3.63284L8.60841 4.1098C8.90435 4.17566 9.02107 4.5349 8.82036 4.76213L7.36674 6.4078C7.29378 6.4904 7.25831 6.59955 7.26879 6.70927L7.47749 8.89506C7.50631 9.19687 7.20072 9.41889 6.92259 9.29822L4.90827 8.42429C4.80716 8.38042 4.6924 8.38042 4.59129 8.42429L2.57697 9.29822C2.29884 9.41889 1.99325 9.19687 2.02207 8.89506L2.23077 6.70927C2.24124 6.59955 2.20578 6.4904 2.13281 6.4078L0.679195 4.76213C0.478485 4.5349 0.595208 4.17566 0.891148 4.1098L3.03445 3.63284C3.14204 3.6089 3.23488 3.54144 3.2909 3.44652L4.40683 1.55551Z" fill="#F7BB2B"/>
<path d="M15.2633 1.55551C15.4174 1.2944 15.7951 1.2944 15.9492 1.55551L17.0651 3.44652C17.1211 3.54144 17.214 3.6089 17.3216 3.63284L19.4649 4.1098C19.7608 4.17566 19.8775 4.5349 19.6768 4.76213L18.2232 6.4078C18.1502 6.4904 18.1148 6.59955 18.1252 6.70927L18.3339 8.89506C18.3628 9.19687 18.0572 9.41889 17.779 9.29822L15.7647 8.42429C15.6636 8.38042 15.5488 8.38042 15.4477 8.42429L13.4334 9.29822C13.1553 9.41889 12.8497 9.19687 12.8785 8.89506L13.0872 6.70927C13.0977 6.59955 13.0622 6.4904 12.9893 6.4078L11.5356 4.76213C11.3349 4.5349 11.4517 4.17566 11.7476 4.1098L13.8909 3.63284C13.9985 3.6089 14.0913 3.54144 14.1473 3.44652L15.2633 1.55551Z" fill="#F7BB2B"/>
<path d="M26.1194 1.55551C26.2734 1.2944 26.6512 1.2944 26.8053 1.55551L27.9212 3.44652C27.9772 3.54144 28.07 3.6089 28.1776 3.63284L30.3209 4.1098C30.6169 4.17566 30.7336 4.5349 30.5329 4.76213L29.0793 6.4078C29.0063 6.4904 28.9708 6.59955 28.9813 6.70927L29.19 8.89506C29.2188 9.19687 28.9132 9.41889 28.6351 9.29822L26.6208 8.42429C26.5197 8.38042 26.4049 8.38042 26.3038 8.42429L24.2895 9.29822C24.0114 9.41889 23.7058 9.19687 23.7346 8.89506L23.9433 6.70927C23.9538 6.59955 23.9183 6.4904 23.8453 6.4078L22.3917 4.76213C22.191 4.5349 22.3077 4.17566 22.6037 4.1098L24.747 3.63284C24.8546 3.6089 24.9474 3.54144 25.0034 3.44652L26.1194 1.55551Z" fill="#F7BB2B"/>
<path d="M36.9771 1.55551C37.1312 1.2944 37.509 1.2944 37.663 1.55551L38.779 3.44652C38.835 3.54144 38.9278 3.6089 39.0354 3.63284L41.1787 4.1098C41.4747 4.17566 41.5914 4.5349 41.3907 4.76213L39.9371 6.4078C39.8641 6.4904 39.8286 6.59955 39.8391 6.70927L40.0478 8.89506C40.0766 9.19687 39.771 9.41889 39.4929 9.29822L37.4786 8.42429C37.3775 8.38042 37.2627 8.38042 37.1616 8.42429L35.1473 9.29822C34.8691 9.41889 34.5636 9.19687 34.5924 8.89506L34.8011 6.70927C34.8116 6.59955 34.7761 6.4904 34.7031 6.4078L33.2495 4.76213C33.0488 4.5349 33.1655 4.17566 33.4615 4.1098L35.6048 3.63284C35.7123 3.6089 35.8052 3.54144 35.8612 3.44652L36.9771 1.55551Z" fill="#F7BB2B"/>
<path d="M47.961 1.63068C48.0578 1.46656 48.2953 1.46656 48.3921 1.63068L49.508 3.52169C49.5849 3.65187 49.7122 3.74439 49.8597 3.77722L52.003 4.25418C52.1891 4.29557 52.2624 4.52138 52.1363 4.66421L50.6826 6.30988C50.5826 6.42317 50.5339 6.57286 50.5483 6.72333L50.757 8.90912C50.7751 9.09883 50.583 9.23838 50.4082 9.16253L48.3939 8.2886C48.2552 8.22844 48.0978 8.22844 47.9592 8.2886L45.9449 9.16253C45.77 9.23838 45.5779 9.09883 45.5961 8.90912L45.8048 6.72333C45.8191 6.57286 45.7705 6.42317 45.6704 6.30988L44.2168 4.66421C44.0906 4.52138 44.164 4.29557 44.35 4.25418L46.4933 3.77722C46.6409 3.74439 46.7682 3.65187 46.845 3.52169L47.961 1.63068Z" stroke="black" stroke-width="0.295813"/>
<mask id="mask0_96_671" style="mask-type:alpha" maskUnits="userSpaceOnUse" x="44" y="1" width="9" height="9">
<path d="M47.8336 1.55551C47.9877 1.2944 48.3654 1.2944 48.5195 1.55551L49.6354 3.44652C49.6914 3.54144 49.7843 3.6089 49.8919 3.63284L52.0352 4.1098C52.3311 4.17566 52.4478 4.5349 52.2471 4.76213L50.7935 6.4078C50.7205 6.4904 50.6851 6.59955 50.6955 6.70927L50.9042 8.89506C50.9331 9.19687 50.6275 9.41889 50.3493 9.29822L48.335 8.42429C48.2339 8.38042 48.1192 8.38042 48.018 8.42429L46.0037 9.29822C45.7256 9.41889 45.42 9.19687 45.4488 8.89506L45.6575 6.70927C45.668 6.59955 45.6325 6.4904 45.5596 6.4078L44.106 4.76213C43.9052 4.5349 44.022 4.17566 44.3179 4.1098L46.4612 3.63284C46.5688 3.6089 46.6616 3.54144 46.7177 3.44652L47.8336 1.55551Z" fill="#F7BB2B"/>
</mask>
<g mask="url(#mask0_96_671)">
<rect x="42.0046" y="0.684631" width="10.9213" height="10.0812" fill="#F7BB2B"/>
</g>
</svg>
