<svg id="angle-bottom" viewBox="0 0 30 30" fill="none" xmlns="http://www.w3.org/2000/svg">
<path opacity="0.5" d="M8.06569 11.4115C8.14225 11.2413 8.24615 11.1364 8.4102 11.0598C8.57698 10.9804 8.84493 10.9804 9.01172 11.0598C9.10741 11.1023 9.78276 11.7888 12.0658 14.1575L14.9996 17.1986L17.9306 14.1575C20.2137 11.7917 20.8918 11.1023 20.9875 11.0598C21.2472 10.9378 21.6273 11.0087 21.8132 11.2158C22.0046 11.4286 22.0565 11.7945 21.9335 12.064C21.8405 12.2654 15.4863 18.8553 15.3003 18.9404C15.1226 19.0226 14.8629 19.0198 14.6852 18.9318C14.491 18.8354 8.13951 12.2427 8.05749 12.0498C7.9782 11.8654 7.98093 11.5959 8.06569 11.4115Z" fill="#969DA4"/>
</svg>
