<svg id="icon-capacity" viewBox="0 0 29 38" fill="none" xmlns="http://www.w3.org/2000/svg">
<path d="M10.1895 0.124336C9.59552 0.317379 9.42475 0.413902 7.7319 1.54989C6.7444 2.2107 6.06875 2.71558 5.846 2.96803C5.49704 3.35411 5.16292 3.94067 4.99958 4.45298C4.92533 4.68315 4.87336 4.73512 4.71001 4.73512C4.48727 4.73512 4.23482 4.91332 4.1086 5.15834C4.0492 5.26971 4.02693 6.36115 4.02693 8.70738C4.02693 11.7144 4.04178 12.1228 4.14573 12.3084L4.27195 12.5089L2.17816 15.9911C0.336815 19.065 0.0917969 19.5104 0.0917969 19.7852C0.0917969 20.3717 0.67093 20.7727 1.20551 20.5499C1.47281 20.4385 1.55448 20.3123 3.32158 17.3573C4.08633 16.0728 4.74713 14.9887 4.77683 14.9516C4.81396 14.9071 4.84366 17.1865 4.84366 20.0896V25.3018H4.68774C4.59864 25.3018 4.42044 25.4131 4.27937 25.5542L4.02693 25.8067V29.2369C4.02693 31.6128 4.0492 32.7117 4.1086 32.8231C4.23482 33.0607 4.48727 33.2463 4.69516 33.2463C4.87336 33.2463 4.89563 33.2908 4.98473 33.7066C5.20005 34.7535 5.76433 35.7262 6.6256 36.5355C7.38293 37.2557 8.26648 37.7086 9.28368 37.9165C9.82568 38.0278 18.8691 38.0278 19.4111 37.9165C20.4283 37.7086 21.3118 37.2557 22.0691 36.5355C22.9304 35.7262 23.4947 34.7535 23.71 33.7066C23.7991 33.2908 23.8214 33.2463 23.9996 33.2463C24.2075 33.2463 24.4599 33.0607 24.5861 32.8231C24.6455 32.7117 24.6678 31.6128 24.6678 29.2369V25.8067L24.4154 25.5542C24.2743 25.4131 24.0961 25.3018 24.007 25.3018H23.8511V20.0896C23.8511 17.1865 23.8808 14.9071 23.9179 14.9442C23.9476 14.9887 24.6084 16.0728 25.3732 17.3573C27.1403 20.3123 27.2219 20.4385 27.4892 20.5499C28.0238 20.7727 28.603 20.3717 28.603 19.7852C28.603 19.5104 28.3579 19.065 26.5166 15.9911L24.4228 12.5089L24.549 12.3084C24.653 12.1228 24.6678 11.7144 24.6678 8.70738C24.6678 6.36115 24.6455 5.26971 24.5861 5.15834C24.4599 4.91332 24.2075 4.73512 23.9847 4.73512C23.8214 4.73512 23.7694 4.68315 23.6952 4.45298C23.5318 3.94067 23.1977 3.35411 22.8413 2.9606C22.4181 2.49284 19.4333 0.465874 18.7577 0.198582L18.3196 0.0203896L14.4587 0.00553894C10.9246 -0.00931168 10.5607 -0.00188446 10.1895 0.124336ZM18.9804 8.00945C19.6487 8.1728 20.1313 8.8039 20.1387 9.50183C20.1387 9.79882 20.0051 10.1107 19.218 11.6921C18.2602 13.6003 18.0672 13.8825 17.54 14.0978C17.3321 14.1794 16.6936 14.2017 14.3474 14.2017C12.0011 14.2017 11.3626 14.1794 11.1547 14.0978C10.6276 13.8825 10.4345 13.6003 9.47672 11.6921C8.68969 10.1107 8.55605 9.79882 8.55605 9.50183C8.56347 8.82618 9.00896 8.22477 9.64749 8.0243C10.0336 7.90551 18.5201 7.89066 18.9804 8.00945ZM7.96206 18.9165V22.4432L7.25671 22.7996C6.87062 22.9927 6.53651 23.1486 6.51423 23.1486C6.49196 23.1486 6.47711 21.0696 6.47711 18.5304V13.9047L7.21959 14.6472L7.96206 15.3897V18.9165ZM22.1879 23.1263C22.1731 23.1412 21.839 23.0001 21.4455 22.7996L20.7327 22.4432V18.9165V15.3897L21.4603 14.6621L22.1805 13.9419L22.2028 18.5155C22.2102 21.0399 22.2028 23.1115 22.1879 23.1263ZM11.2364 25.6359C12.3427 25.9923 13.152 26.1185 14.3474 26.1185C15.5502 26.1185 16.4486 25.9774 17.4881 25.6285C17.8964 25.4874 18.2974 25.376 18.379 25.376C18.7206 25.376 18.9136 25.6582 19.7972 27.4401C20.5322 28.9251 20.6733 29.2518 20.6287 29.4299C20.4431 30.1502 18.4533 31.1079 16.3521 31.4792C15.617 31.6054 13.0777 31.6054 12.3427 31.4792C10.7464 31.197 9.09063 30.5437 8.42982 29.9274C7.90267 29.4374 7.89524 29.4522 8.91986 27.4104C9.81826 25.6062 9.96675 25.3909 10.3306 25.376C10.39 25.376 10.7983 25.4948 11.2364 25.6359Z" fill="#3B99FF"/>
</svg>
