<svg id="icon-instagram" viewBox="0 0 30 30" fill="none" xmlns="http://www.w3.org/2000/svg">
<circle cx="14.6939" cy="15.2994" r="14.6939" fill="#3B99FF"/>
<g clip-path="url(#clip0_46_213)">
<path d="M18.9238 8.5332H11.0762C9.61875 8.5332 8.4375 9.71445 8.4375 11.1719V18.8281C8.4375 20.2855 9.61875 21.4668 11.0762 21.4668H18.9238C20.3813 21.4668 21.5625 20.2855 21.5625 18.8281V11.1719C21.5625 9.71445 20.3813 8.5332 18.9238 8.5332ZM15 18.0898C13.2937 18.0898 11.9102 16.7063 11.9102 15C11.9102 13.2937 13.2937 11.9102 15 11.9102C16.7063 11.9102 18.0898 13.2937 18.0898 15C18.0898 16.7063 16.7063 18.0898 15 18.0898ZM18.984 11.8309C18.6203 11.8309 18.325 11.5355 18.325 11.1719C18.325 10.8082 18.6203 10.5129 18.984 10.5129C19.3477 10.5129 19.643 10.8082 19.643 11.1719C19.643 11.5355 19.3477 11.8309 18.984 11.8309Z" fill="white"/>
</g>
<defs>
<clipPath id="clip0_46_213">
<rect width="14" height="14" fill="white" transform="translate(8 8)"/>
</clipPath>
</defs>
</svg>
