<svg id="icon-protect" viewBox="0 0 18 21" fill="none" xmlns="http://www.w3.org/2000/svg">
<path d="M0.941406 6.42151C0.941406 10.3228 0.958517 12.5515 0.984184 12.7868C1.10824 13.7792 1.44618 14.5535 2.12206 15.3962C3.50804 17.1287 5.24908 18.6558 7.13128 19.7937C7.72588 20.153 9.37281 21 9.47975 21C9.57814 21 10.6005 20.538 11.2293 20.2129C13.4965 19.0365 15.4172 17.4153 16.9273 15.4176C17.4192 14.7631 17.6887 14.2155 17.894 13.4541L17.9839 13.1076L17.9967 6.78511C18.0053 3.3116 17.9967 0.466909 17.9796 0.466909C17.9625 0.466909 17.4919 0.650852 16.9401 0.873295C15.3659 1.5064 14.5189 1.71601 13.5136 1.71601C12.3587 1.71601 10.9556 1.28823 9.71502 0.552464L9.48831 0.419855L9.22309 0.590963C8.42315 1.09574 7.33233 1.51923 6.40406 1.68606C6.07468 1.74595 5.8394 1.75878 5.33463 1.74167C4.29514 1.70745 3.40538 1.46362 1.81834 0.787739C1.39485 0.608074 1.02268 0.449799 0.997017 0.436966C0.954239 0.419855 0.941406 1.63473 0.941406 6.42151ZM9.82625 2.48172C11.9822 3.45276 13.7917 3.61104 15.875 3.01216C16.076 2.95655 16.2771 2.89666 16.3156 2.87955C16.384 2.85388 16.3883 3.17899 16.3754 7.82888C16.3583 12.8039 16.3583 12.8082 16.2685 13.1418C16.0503 13.9161 15.4301 14.7716 14.2024 15.9951C12.9362 17.2613 11.8282 18.0569 10.207 18.8697L9.52253 19.2119L9.28297 19.0964C8.85948 18.8911 7.93549 18.3564 7.46066 18.0441C6.17307 17.1971 4.9753 16.1576 3.96576 15.0112C3.11021 14.0401 2.86211 13.6423 2.69527 12.9835C2.614 12.6542 2.60972 12.5044 2.60972 7.76899C2.60972 3.14904 2.614 2.89666 2.68244 2.91805C3.97859 3.29021 4.5732 3.3886 5.51857 3.39288C6.75912 3.39288 7.80288 3.14049 9.15464 2.50739C9.33003 2.42183 9.48831 2.35339 9.50542 2.35339C9.51825 2.34911 9.66369 2.409 9.82625 2.48172Z" fill="white"/>
<path d="M10.9725 9.02282L8.61977 11.3756L7.33646 10.0923C6.63063 9.38643 6.03175 8.80894 6.01036 8.80894C5.98469 8.80894 5.71092 9.0656 5.39864 9.37788L4.83398 9.94254L6.70763 11.8162C7.73428 12.8428 8.59838 13.6855 8.61977 13.6855C8.67538 13.6855 14.4589 7.90206 14.4589 7.84645C14.4589 7.82078 14.2022 7.54701 13.8899 7.23474L13.3253 6.67008L10.9725 9.02282Z" fill="white"/>
</svg>
