<svg id="icon-play" viewBox="0 0 66 66" fill="none" xmlns="http://www.w3.org/2000/svg">
<path d="M63.2498 26.7021C63.3858 22.7659 62.525 18.8591 60.7473 15.3446C59.5412 13.9025 57.8673 12.9293 56.0173 12.5946C48.3655 11.9003 40.682 11.6157 32.9998 11.7421C25.3456 11.61 17.6898 11.8854 10.0648 12.5671C8.55733 12.8413 7.16225 13.5484 6.04983 14.6021C3.57483 16.8846 3.29983 20.7896 3.02483 24.0896C2.62584 30.0229 2.62584 35.9763 3.02483 41.9096C3.10439 43.767 3.38094 45.6106 3.84983 47.4096C4.18141 48.7985 4.85227 50.0835 5.80233 51.1496C6.92232 52.2591 8.34989 53.0064 9.89983 53.2946C15.8286 54.0264 21.8024 54.3297 27.7748 54.2021C37.3998 54.3396 45.8423 54.2021 55.8248 53.4321C57.4128 53.1616 58.8806 52.4133 60.0323 51.2871C60.8022 50.5169 61.3773 49.5741 61.7098 48.5371C62.6933 45.5193 63.1764 42.3609 63.1398 39.1871C63.2498 37.6471 63.2498 28.3521 63.2498 26.7021ZM26.7848 40.8371V23.8146L43.0648 32.3671C38.4998 34.8971 32.4773 37.7571 26.7848 40.8371Z" fill="#3B99FF"/>
</svg>
