<svg id="icon-volume" viewBox="0 0 48 21" fill="none" xmlns="http://www.w3.org/2000/svg">
<mask id="mask0_57_734" style="mask-type:alpha" maskUnits="userSpaceOnUse" x="0" y="0" width="48" height="21">
<rect x="0.413086" y="0.000976562" width="47.173" height="20.7275" fill="#D9D9D9"/>
</mask>
<g mask="url(#mask0_57_734)">
<path d="M40.8548 -0.287855C40.7552 -0.241869 40.6019 -0.149895 40.5176 -0.0809155C40.4409 -0.0119343 39.6132 1.18373 38.6934 2.571L37.0072 5.09262L36.8616 4.87035C36.785 4.74772 36.1412 3.73601 35.4284 2.61699C34.5546 1.24504 34.0488 0.532246 33.8801 0.409613L33.6272 0.240993H26.5529H19.4862L19.2486 0.440271C19.1183 0.547574 17.9226 1.97317 16.589 3.60571C15.2554 5.23058 14.0981 6.5872 14.0061 6.62552C13.9141 6.65618 12.1359 6.92444 10.0512 7.21569C6.00435 7.79053 5.93537 7.80585 5.65945 8.27339C5.53681 8.48799 5.52148 8.8099 5.52148 12.1056V15.708L5.72076 15.9532C6.05033 16.3364 6.27261 16.4131 7.1157 16.4131H7.87449L7.92047 15.8536C7.9588 15.2941 8.23472 14.405 8.53363 13.8991C9.23877 12.6575 10.4957 11.7071 11.8294 11.3928C12.4502 11.2472 13.6459 11.2472 14.2207 11.3928C15.6463 11.7531 17.0029 12.8491 17.6237 14.1214C17.9456 14.7882 18.1679 15.6006 18.1679 16.1218V16.4131H24.5678H30.9676V16.0835C30.9676 15.2328 31.5041 13.8991 32.1403 13.148C32.8454 12.3126 33.8878 11.6534 34.9148 11.3928C35.4973 11.2472 36.6853 11.2472 37.3215 11.3928C38.7318 11.7301 40.0271 12.7724 40.7169 14.1367C40.9851 14.6732 41.2381 15.616 41.2381 16.0835V16.4131H42.5793C44.0279 16.4131 44.1659 16.3824 44.5338 15.9915L44.7254 15.7846L44.7484 11.5691C44.7637 7.39197 44.7637 7.35365 44.6028 7.09306C44.2885 6.57187 44.2425 6.56421 41.4527 6.54121L38.9464 6.51822L40.372 4.37216C41.1537 3.19949 41.8435 2.23376 41.8972 2.23376C41.9509 2.23376 42.3494 2.31807 42.7786 2.42538C43.821 2.6783 44.2579 2.57867 44.6181 2.02682C44.802 1.7509 44.8097 1.07642 44.6411 0.792838C44.4265 0.424942 44.1506 0.302311 42.8169 -0.0349274C41.4603 -0.379829 41.1767 -0.418152 40.8548 -0.287855ZM33.8188 4.57144L35.0375 6.48756L30.5844 6.51055C28.1318 6.51822 24.1462 6.51822 21.7319 6.51055L17.3401 6.48756L18.919 4.54844L20.5056 2.61699L26.5529 2.63232L32.6002 2.65531L33.8188 4.57144Z" fill="#3B99FF"/>
<path d="M11.9369 12.4654C11.2394 12.657 10.7105 12.9713 10.1587 13.5308C9.33093 14.3662 8.9707 15.217 8.9707 16.3743C8.9707 17.5316 9.36159 18.4897 10.1664 19.3021C11.5766 20.7047 13.876 20.858 15.4702 19.6547C18.1604 17.6006 17.3787 13.4465 14.1136 12.4731C13.6077 12.3274 12.4657 12.3198 11.9369 12.4654ZM13.6844 14.8721C14.8034 15.3856 15.0487 16.7039 14.1902 17.5623C13.5081 18.2368 12.6267 18.2674 11.9445 17.6543C11.408 17.1714 11.2317 16.5506 11.431 15.8684C11.7069 14.9564 12.8106 14.4658 13.6844 14.8721Z" fill="#3B99FF"/>
<path d="M34.9532 12.4974C33.52 12.9572 32.4853 14.0456 32.1557 15.4252C31.8338 16.8048 32.2247 18.2611 33.1827 19.2345C35.7503 21.8481 40.1651 20.0546 40.1651 16.3986C40.1651 14.5591 38.9234 12.9342 37.1683 12.4667C36.5934 12.3134 35.4744 12.3287 34.9532 12.4974ZM36.877 14.9423C37.8964 15.4712 38.088 16.7895 37.2679 17.5866C36.5704 18.2687 35.643 18.2534 34.9379 17.5559C34.3477 16.9658 34.2634 16.2146 34.6926 15.5172C34.9762 15.0573 35.5664 14.7277 36.1029 14.7277C36.3558 14.7277 36.5934 14.7967 36.877 14.9423Z" fill="#3B99FF"/>
</g>
</svg>
