<?xml version="1.0" encoding="utf-8"?><svg xmlns="http://www.w3.org/2000/svg" xmlns:xlink="http://www.w3.org/1999/xlink"><symbol viewBox="0 0 6 12" id="angle-left" xmlns="http://www.w3.org/2000/svg">
    <path d="M.34 6.493a.698.698 0 010-.987l4.444-4.444a.698.698 0 11.988.988L1.822 6l3.95 3.95a.698.698 0 11-.988.987L.341 6.493zm1.193.205H.834V5.3h.699v1.397z"/>
</symbol><symbol viewBox="0 0 6 12" id="angle-right" xmlns="http://www.w3.org/2000/svg">
    <path d="M5.66 6.493a.698.698 0 000-.987L1.215 1.062a.698.698 0 10-.988.988L4.178 6 .228 9.95a.698.698 0 10.988.987l4.443-4.444zm-1.193.205h.699V5.3h-.699v1.397z"/>
</symbol><symbol viewBox="0 0 26 26" id="calendar" xmlns="http://www.w3.org/2000/svg">
    <path d="M18.146 3.857v-1.69a.818.818 0 00-.813-.813.818.818 0 00-.812.813v1.625H9.479V2.167a.818.818 0 00-.812-.813.818.818 0 00-.813.813v1.69C4.93 4.127 3.51 5.87 3.294 8.46a.544.544 0 00.541.574h18.33c.314 0 .574-.271.542-.574-.217-2.59-1.636-4.334-4.561-4.604zM21.667 10.66H4.333c-.596 0-1.083.488-1.083 1.083v6.674c0 3.25 1.625 5.416 5.417 5.416h8.666c3.792 0 5.417-2.166 5.417-5.416v-6.674c0-.595-.488-1.083-1.083-1.083zm-11.69 9.068c-.054.043-.108.097-.162.13a.823.823 0 01-.195.097.69.69 0 01-.195.065c-.076.011-.14.022-.217.022a1.08 1.08 0 01-.411-.087c-.141-.054-.25-.13-.358-.227a1.14 1.14 0 01-.314-.77c0-.281.12-.563.314-.769.108-.097.217-.173.358-.227.195-.087.411-.108.628-.065a.69.69 0 01.195.065c.065.021.13.054.195.097l.162.13c.195.206.315.488.315.77 0 .281-.12.563-.315.769zm0-3.792a1.14 1.14 0 01-.769.314 1.14 1.14 0 01-.769-.314 1.14 1.14 0 01-.314-.77c0-.28.12-.563.314-.768.303-.304.78-.401 1.18-.228.142.054.26.13.358.228.195.206.315.487.315.769 0 .281-.12.563-.315.769zm3.792 3.792a1.14 1.14 0 01-.77.314c-.28 0-.562-.12-.768-.314a1.14 1.14 0 01-.314-.77c0-.281.119-.563.314-.769.4-.4 1.137-.4 1.538 0 .195.206.314.488.314.77 0 .281-.119.563-.314.769zm0-3.792l-.162.13a.823.823 0 01-.195.098.688.688 0 01-.195.064c-.076.011-.141.022-.217.022a1.14 1.14 0 01-.77-.314 1.14 1.14 0 01-.313-.77c0-.28.119-.563.314-.768a1.01 1.01 0 01.357-.228c.401-.173.878-.076 1.181.228.195.206.314.487.314.769 0 .281-.119.563-.314.769zm3.792 3.792a1.14 1.14 0 01-.77.314 1.14 1.14 0 01-.769-.314 1.14 1.14 0 01-.314-.77c0-.281.12-.563.314-.769.401-.4 1.138-.4 1.539 0 .195.206.314.488.314.77 0 .281-.12.563-.314.769zm0-3.792l-.163.13a.823.823 0 01-.195.098.688.688 0 01-.195.064c-.076.011-.151.022-.216.022a1.14 1.14 0 01-.77-.314 1.14 1.14 0 01-.314-.77c0-.28.12-.563.314-.768.109-.098.217-.174.358-.228.195-.086.412-.108.628-.065.065.011.13.033.195.065.065.022.13.054.195.098l.163.13c.195.206.314.487.314.769 0 .281-.12.563-.314.769z"/>
</symbol><symbol viewBox="0 0 10 5" id="caret-down" xmlns="http://www.w3.org/2000/svg">
    <path d="M5 5L9.33.5H.67L5 5z"/>
</symbol><symbol fill="none" viewBox="0 0 14 11" id="field-email" xmlns="http://www.w3.org/2000/svg">
    <path d="M.853.341C.773.366.708.396.708.41c0 .016 1.362 1.392 3.031 3.061l3.029 3.031.13.02c.305.04.07.251 3.382-3.067C11.938 1.794 13.292.423 13.292.41c0-.014-.07-.047-.158-.071-.145-.041-.69-.044-6.15-.041C1.663.3.979.303.853.34zM.062 1.093c-.05.112-.052.287-.06 4.068-.006 3.453 0 3.97.035 4.09a.837.837 0 00.069.18c.022.034.454-.385 2.153-2.084L4.387 5.22l-2.12-2.12A207.158 207.158 0 00.13.978c-.01 0-.04.051-.068.114zM11.733 3.098l-2.12 2.12 2.128 2.13c1.699 1.698 2.131 2.117 2.153 2.084a.839.839 0 00.069-.18c.035-.121.04-.638.035-4.09-.008-3.782-.01-3.957-.06-4.069-.027-.063-.058-.115-.069-.115-.008 0-.97.955-2.136 2.12z" fill="#CFCFCF"/>
    <path d="M2.806 7.9C1.651 9.057.708 10.015.708 10.03c0 .013.07.046.158.07.145.042.692.045 6.134.045 5.441 0 5.989-.003 6.134-.044.087-.025.158-.058.158-.071 0-.014-.946-.974-2.104-2.137L9.085 5.78l-.668.66c-.563.56-.692.672-.843.743-.369.181-.782.181-1.146.003-.153-.074-.279-.183-.84-.741a20.113 20.113 0 00-.673-.651c-.005 0-.957.946-2.109 2.106z" fill="#CFCFCF"/>
</symbol><symbol fill="none" viewBox="0 0 14 14" id="field-phone" xmlns="http://www.w3.org/2000/svg">
    <path d="M5.798 8.6C4.462 7.265 4.16 5.929 4.092 5.394a.48.48 0 01.138-.402l1.081-1.08a.483.483 0 00.068-.598L3.657.639a.483.483 0 00-.625-.176L.268 1.765a.48.48 0 00-.266.48c.145 1.375.745 4.758 4.069 8.082 3.324 3.324 6.705 3.924 8.082 4.068a.48.48 0 00.48-.265l1.301-2.764a.483.483 0 00-.175-.625L11.086 9.02a.483.483 0 00-.598.068l-1.08 1.081a.48.48 0 01-.402.138c-.536-.068-1.872-.37-3.208-1.706z" fill="#CFCFCF"/>
    <path d="M11.104 7.882a.483.483 0 01-.483-.483A3.625 3.625 0 007 3.778a.483.483 0 010-.966A4.591 4.591 0 0111.585 7.4a.483.483 0 01-.482.483z" fill="#CFCFCF"/>
    <path d="M13.518 7.881a.483.483 0 01-.483-.482A6.041 6.041 0 007 1.364a.483.483 0 010-.966 7.008 7.008 0 017 7 .483.483 0 01-.482.483z" fill="#CFCFCF"/>
</symbol><symbol fill="none" viewBox="0 0 14 14" id="field-user" xmlns="http://www.w3.org/2000/svg">
    <path d="M7 0a3.696 3.696 0 00-3.692 3.691A3.696 3.696 0 007 7.383 3.696 3.696 0 0010.69 3.69 3.696 3.696 0 007 0zM11.593 9.794a5.262 5.262 0 00-3.773-1.59H6.18a5.262 5.262 0 00-3.773 1.59 5.38 5.38 0 00-1.56 3.796c0 .226.184.41.41.41h11.485a.41.41 0 00.41-.41 5.38 5.38 0 00-1.56-3.796z" fill="#CFCFCF"/>
</symbol><symbol fill="none" viewBox="0 0 17 13" id="icon-email" xmlns="http://www.w3.org/2000/svg">
    <path d="M1.148.605c-.027.01-.117.04-.197.07L.808.727l1.225 1.227c2.924 2.931 5.592 5.543 5.735 5.616a1.6 1.6 0 001.464 0c.143-.073 2.811-2.685 5.732-5.616L16.192.728l-.147-.064c-.14-.06-.356-.063-7.495-.07-4.042-.003-7.376.004-7.402.01zM.06 1.572C.003 1.725 0 1.948 0 6.59c0 4.787 0 4.86.067 5l.066.143 2.595-2.578L5.323 6.58l-.982-.988C3.803 5.05 2.631 3.888 1.74 3.01L.123 1.413l-.063.16zM14.272 3.994l-2.595 2.579 2.595 2.578 2.595 2.581.066-.143c.067-.14.067-.213.067-5.016 0-4.804 0-4.878-.067-5.017l-.066-.143-2.595 2.581z" fill="#79B3CD"/>
    <path d="M3.397 9.84L.805 12.412l.146.066c.147.067.193.067 7.532.067 7.146 0 7.393-.003 7.549-.063l.16-.063-1.008-1.012a595.11 595.11 0 00-2.602-2.578l-1.59-1.567-.44.43c-.518.511-.631.601-.947.76-.859.43-1.9.32-2.649-.282a9.112 9.112 0 01-.569-.529c-.2-.203-.372-.37-.382-.37-.01 0-1.184 1.159-2.608 2.57z" fill="#79B3CD"/>
</symbol><symbol fill="none" viewBox="0 0 17 17" id="icon-phone" xmlns="http://www.w3.org/2000/svg">
    <path d="M6.887 3.9C6.666 1.355 4.011.106 3.898.055a.564.564 0 00-.337-.046C.496.518.035 2.302.016 2.377a.574.574 0 00.012.313C3.684 14.04 11.283 16.144 13.78 16.836c.193.053.351.096.472.136a.573.573 0 00.418-.025c.076-.034 1.881-.885 2.323-3.66a.578.578 0 00-.056-.355c-.04-.077-.984-1.874-3.602-2.51a.565.565 0 00-.512.122c-.826.706-1.967 1.458-2.46 1.536-3.3-1.615-5.143-4.713-5.212-5.3-.04-.331.716-1.492 1.586-2.435a.579.579 0 00.15-.444z" fill="#79B3CD"/>
</symbol><symbol fill="none" viewBox="0 0 13 20" id="icon-pin" xmlns="http://www.w3.org/2000/svg">
    <path fill-rule="evenodd" clip-rule="evenodd" d="M5.606.06C3.146.442 1.102 2.263.33 4.755c-.67 2.17-.345 4.197 1.186 7.371.914 1.898 2.021 3.743 3.558 5.931C5.719 18.974 6.482 20 6.521 20c.015 0 .223-.268.461-.595 2.834-3.896 4.985-7.788 5.705-10.326.273-.962.314-1.25.313-2.193-.001-.73-.014-.92-.09-1.295C12.37 2.93 10.591.915 8.166.221 7.41.006 6.374-.06 5.606.06zm1.663 3.967c.938.305 1.628 1.045 1.924 2.066.129.445.128 1.142 0 1.587-.32 1.097-1.027 1.823-2.04 2.093-.637.171-1.447.05-2.014-.299-.58-.357-1.017-.923-1.263-1.635-.097-.281-.105-.356-.105-.932 0-.58.008-.652.11-.96.246-.752.762-1.379 1.41-1.713.48-.247.794-.317 1.334-.294.24.01.525.048.644.087z" fill="#79B3CD"/>
</symbol><symbol viewBox="0 0 7 11" id="link-arrow-right" xmlns="http://www.w3.org/2000/svg">
    <path d="M.312.052a.506.506 0 00-.267.27.642.642 0 000 .474c.033.075.553.606 2.348 2.401l2.305 2.308L2.393 7.81C.6 9.605.078 10.138.045 10.214c-.092.204-.038.503.119.649.16.15.438.191.642.095.153-.074 5.148-5.07 5.213-5.217a.63.63 0 00-.007-.484C5.94 5.105.942.11.796.045a.63.63 0 00-.484.007z"/>
</symbol><symbol viewBox="0 0 16 8" id="long-arrow-right" xmlns="http://www.w3.org/2000/svg">
    <path d="M15.425 4.354a.5.5 0 000-.708L12.243.464a.5.5 0 10-.707.708L14.364 4l-2.828 2.828a.5.5 0 10.707.708l3.182-3.182zM.929 4.5h14.142v-1H.93v1z"/>
</symbol><symbol viewBox="0 0 24 24" id="money" xmlns="http://www.w3.org/2000/svg">
    <path d="M11.816 2.186L9.43 7.736H7.047c-.396 0-.782.03-1.158.11l.99-2.375.039-.089.06-.158c.029-.07.049-.129.078-.178 1.148-2.662 2.434-3.493 4.76-2.86zM18.526 8.003l-.02-.01a6.616 6.616 0 00-1.81-.257h-6.194l2.226-5.175.03-.069c.139.05.287.119.436.168l2.186.92c1.217.505 2.068 1.03 2.592 1.663.09.118.169.227.248.356.089.138.158.277.198.425.04.09.069.169.089.258.148.504.158 1.078.02 1.721zM12.388 17.473h.247c.297 0 .545-.267.545-.593 0-.416-.12-.475-.377-.574l-.415-.149v1.316z"/>
    <path d="M18.097 9.42a5.004 5.004 0 00-1.395-.197H7.045c-.673 0-1.306.129-1.9.386a4.842 4.842 0 00-2.928 4.442v1.93c0 .237.02.465.05.702.217 3.146 1.899 4.828 5.045 5.036.228.03.455.05.703.05h7.717c3.66 0 5.59-1.742 5.778-5.205.01-.188.02-.386.02-.583v-1.93a4.848 4.848 0 00-3.433-4.63zm-4.957 5.917c.455.159 1.068.495 1.068 1.544 0 .9-.702 1.623-1.573 1.623h-.247v.217a.511.511 0 01-.515.515.511.511 0 01-.514-.515v-.217h-.09c-.95 0-1.73-.802-1.73-1.791 0-.287.227-.515.514-.515.287 0 .514.228.514.515 0 .415.317.762.703.762h.089v-1.673l-.752-.267c-.455-.158-1.069-.494-1.069-1.543 0-.9.703-1.623 1.573-1.623h.248v-.217a.51.51 0 01.514-.515.51.51 0 01.515.514v.218h.089c.95 0 1.731.802 1.731 1.791a.511.511 0 01-.514.514.511.511 0 01-.515-.514c0-.415-.316-.762-.702-.762h-.09v1.672l.753.267z"/>
    <path d="M10.568 13.991c0 .416.119.475.376.574l.416.148v-1.315h-.248c-.306 0-.544.267-.544.593z"/>
</symbol></svg>